<?xml version="1.0" standalone="no"?>
<!DOCTYPE svg PUBLIC "-//W3C//DTD SVG 1.1//EN" "http://www.w3.org/Graphics/SVG/1.1/DTD/svg11.dtd" >
<svg>
<metadata>
Created by FontForge 20090622 at Thu May 28 05:46:21 2015
 By deploy user
Copyright (c) 2004 The Hoefler Type Foundry, Inc., dba Hoefler &#38; Frere-Jones. All Rights Reserved.
</metadata>
<defs>
<font id="GothamRounded-LightItalic" horiz-adv-x="500" >
  <font-face 
    font-family="Gotham Rounded Light"
    font-weight="300"
    font-style="italic"
    font-stretch="normal"
    units-per-em="1000"
    panose-1="0 0 0 0 0 0 0 0 0 0"
    ascent="750"
    descent="-250"
    x-height="510"
    cap-height="704"
    bbox="-129 -200 1203 905"
    underline-thickness="50"
    underline-position="-50"
    slope="-15"
    unicode-range="U+000D-U+FB02"
  />
<missing-glyph 
d="M0 800h500v-1000h-500v1000zM250 360l179 390h-358zM222 300l-172 376v-752zM278 300l172 -376v752zM71 -150h358l-179 390z" />
    <glyph glyph-name=".notdef" 
d="M0 800h500v-1000h-500v1000zM250 360l179 390h-358zM222 300l-172 376v-752zM278 300l172 -376v752zM71 -150h358l-179 390z" />
    <glyph glyph-name=".null" horiz-adv-x="0" 
 />
    <glyph glyph-name=".null" horiz-adv-x="0" 
 />
    <glyph glyph-name="nonmarkingreturn" unicode="&#xd;" horiz-adv-x="250" 
 />
    <glyph glyph-name="space" unicode=" " horiz-adv-x="300" 
 />
    <glyph glyph-name="exclam" unicode="!" horiz-adv-x="251" 
d="M123 193q-4 -13 -15 -13q-17 0 -12 20l114 481q5 22 29 22h8q12 0 18.5 -7t2.5 -21zM95 20q-3 -12 -12.5 -18t-23.5 -6t-22.5 8.5t-5.5 21.5l10 37q8 26 36 26q14 0 22.5 -9t5.5 -22z" />
    <glyph glyph-name="quotedbl" unicode="&#x22;" horiz-adv-x="410" 
d="M135 455q-6 -13 -17 -13q-18 0 -11 20l80 219q8 21 33 21h6q14 0 19.5 -9t-2.5 -25zM315 455q-6 -13 -17 -13q-18 0 -11 20l80 219q8 21 33 21h6q14 0 19.5 -9t-2.5 -25z" />
    <glyph glyph-name="numbersign" unicode="#" horiz-adv-x="678" 
d="M427 234l83 236h-207l-82 -236h206zM319 517h207l58 166q8 21 27 21q13 0 18 -8t1 -19l-56 -160h95q10 0 17 -6.5t7 -16.5t-7 -17t-17 -7h-111l-83 -236h107q10 0 17 -6.5t7 -16.5t-7 -17t-17 -7h-123l-59 -170q-7 -21 -27 -21q-13 0 -18 8t-1 19l57 164h-207l-59 -170
q-7 -21 -27 -21q-13 0 -18 8t-1 19l57 164h-95q-10 0 -17 6.5t-7 16.5t7 17t17 7h111l83 236h-107q-10 0 -17 6.5t-7 16.5t7 17t17 7h123l58 166q8 21 27 21q13 0 18 -8t1 -19z" />
    <glyph glyph-name="dollar" unicode="$" horiz-adv-x="618" 
d="M218 5q-65 11 -115 36.5t-89 64.5q-5 5 -8 10t-3 13q0 11 7 17.5t18 6.5q10 0 19 -9q36 -38 82.5 -61.5t105.5 -31.5l77 288q-48 18 -82 36t-55.5 38.5t-31.5 44.5t-10 55q0 40 17.5 74.5t49 59.5t74 39t91.5 14q11 0 22 -0.5t22 -1.5l11 41q6 23 27 23q11 0 17.5 -8
t3.5 -20l-12 -43q52 -11 89.5 -30.5t68.5 -45.5q11 -9 11 -22q0 -11 -6.5 -18t-17.5 -7q-10 0 -20 8q-30 27 -63.5 43.5t-78.5 26.5l-73 -272q91 -33 132 -73.5t41 -102.5q0 -43 -18.5 -79t-52 -62.5t-80.5 -41.5t-104 -15h-19l-21 -80q-6 -23 -27 -23q-11 0 -17.5 8
t-3.5 20zM278 47q45 -1 83 8.5t66 29t43.5 47t15.5 61.5q0 41 -29 72t-104 60zM396 651q-44 6 -82 -2t-66.5 -26.5t-45 -45.5t-16.5 -59q0 -45 32.5 -73t106.5 -56z" />
    <glyph glyph-name="percent" unicode="%" horiz-adv-x="821" 
d="M230 346q-30 0 -55.5 11t-43.5 30.5t-28 45.5t-10 56q0 42 15 81.5t40.5 70t60.5 49t75 18.5q30 0 55.5 -11t43.5 -30.5t28 -45.5t10 -56q0 -42 -15 -81.5t-40.5 -70t-60.5 -49t-75 -18.5zM588 -7q-30 0 -55.5 11t-43.5 30.5t-28 45.5t-10 56q0 42 15 81.5t40.5 70
t60.5 49t75 18.5q30 0 55.5 -11t43.5 -30.5t28 -45.5t10 -56q0 -42 -15 -81.5t-40.5 -70t-60.5 -49t-75 -18.5zM234 389q29 0 54 15t44 39.5t29.5 55t10.5 61.5q0 48 -23.5 76.5t-68.5 28.5q-29 0 -54 -15t-44 -39.5t-29.5 -55t-10.5 -61.5q0 -48 23.5 -76.5t68.5 -28.5z
M592 36q29 0 54 15t44 39.5t29.5 55t10.5 61.5q0 48 -23.5 76.5t-68.5 28.5q-29 0 -54 -15t-44 -39.5t-29.5 -55t-10.5 -61.5q0 -48 23.5 -76.5t68.5 -28.5zM137 12q-6 -6 -12.5 -11t-14.5 -5t-14 5.5t-6 14.5q0 10 11 21l635 652q6 6 12.5 11t14.5 5t14 -5.5t6 -14.5
q0 -10 -11 -21z" />
    <glyph glyph-name="ampersand" unicode="&#x26;" horiz-adv-x="690" 
d="M326 411q58 15 96.5 33t61.5 38t32.5 41t9.5 42q0 46 -31 74.5t-84 28.5q-26 0 -50 -10t-42 -28t-28.5 -42t-10.5 -51q0 -32 11 -60.5t35 -65.5zM237 36q63 0 116.5 26.5t106.5 78.5l-159 225q-113 -27 -165 -80t-52 -115q0 -63 41.5 -99t111.5 -36zM487 107
q-58 -58 -117 -87.5t-139 -29.5q-42 0 -78.5 11.5t-63.5 34t-42.5 55t-15.5 74.5q0 85 61.5 146t183.5 92q-21 34 -34 66.5t-13 66.5q0 38 15 70t40 55.5t58.5 37t70.5 13.5q75 0 119.5 -39.5t44.5 -105.5q0 -28 -11 -55t-37 -51.5t-69.5 -46t-108.5 -39.5l142 -201
q30 34 56.5 72.5t47.5 73.5q12 19 25 19q8 0 14.5 -5.5t6.5 -15.5q0 -9 -6 -18q-24 -39 -54 -81.5t-62 -78.5l76 -108q8 -11 8 -20q0 -22 -23 -22q-7 0 -13 4.5t-11 11.5z" />
    <glyph glyph-name="quotesingle" unicode="'" horiz-adv-x="230" 
d="M135 455q-6 -13 -17 -13q-18 0 -11 20l80 219q8 21 33 21h6q14 0 19.5 -9t-2.5 -25z" />
    <glyph glyph-name="parenleft" unicode="(" horiz-adv-x="430" 
d="M291 -101q8 -9 8 -17t-6 -13.5t-14 -5.5q-10 0 -18 8q-33 31 -62 67t-51.5 78.5t-35.5 92.5t-13 109q0 74 23.5 145t71 135t118 118.5t164.5 94.5q10 4 16 4q8 0 14 -5.5t6 -13.5t-4.5 -13t-9.5 -7q-85 -37 -149.5 -87t-108.5 -108.5t-66.5 -125t-22.5 -136.5
q0 -56 12 -102.5t31.5 -85t44.5 -71t52 -61.5z" />
    <glyph glyph-name="parenright" unicode=")" horiz-adv-x="430" 
d="M157 679q-8 9 -8 17t6 13.5t14 5.5q10 0 18 -8q33 -31 62 -67t51.5 -78.5t35.5 -92.5t13 -109q0 -74 -23.5 -145t-71 -135t-118 -118.5t-164.5 -94.5q-10 -4 -16 -4q-8 0 -14 5.5t-6 13.5t4.5 13t9.5 7q85 37 149.5 87t108.5 108.5t66.5 125t22.5 136.5q0 56 -11.5 102.5
t-31 85t-45 71t-52.5 61.5z" />
    <glyph glyph-name="asterisk" unicode="*" horiz-adv-x="430" 
d="M274 425q-3 -18 -20 -18q-11 0 -17 7.5t-2 18.5l36 104l-103 -36q-7 -3 -14 -3q-8 0 -13.5 5.5t-5.5 13.5q0 19 20 22l112 21l-86 72q-10 9 -10 19q0 8 5 14t13 6q11 0 19 -9l74 -85l20 104q5 21 22 21q11 0 16 -8t1 -19l-36 -104l102 36q8 3 15 3q8 0 12.5 -6t4.5 -14
q0 -11 -5.5 -15t-13.5 -6l-111 -21l84 -71q12 -10 12 -20q0 -9 -6 -14.5t-13 -5.5q-10 0 -19 10l-73 84z" />
    <glyph glyph-name="plus" unicode="+" horiz-adv-x="620" 
d="M302 133q-3 -11 -9.5 -17.5t-18.5 -6.5q-13 0 -18.5 9t-2.5 20l52 190h-191q-10 0 -17 7t-7 17t7 17t17 7h204l52 196q7 23 28 23q13 0 18.5 -8.5t2.5 -19.5l-51 -191h191q10 0 17 -6.5t7 -16.5t-7 -17.5t-17 -7.5h-204z" />
    <glyph glyph-name="comma" unicode="," horiz-adv-x="231" 
d="M-30 -79q32 14 48.5 32t22.5 47q-8 1 -15.5 8.5t-3.5 21.5l9 33q8 26 36 26q14 0 23 -9.5t5 -23.5l-12 -45q-8 -27 -17.5 -45.5t-22.5 -31.5t-28.5 -21.5t-35.5 -15.5q-8 -3 -13.5 0.5t-5.5 10.5q0 9 10 13z" />
    <glyph glyph-name="hyphen" unicode="-" horiz-adv-x="409" 
d="M105 269q-11 0 -19.5 8.5t-8.5 19.5t8.5 19.5t19.5 8.5h221q11 0 19.5 -8.5t8.5 -19.5t-8.5 -19.5t-19.5 -8.5h-221z" />
    <glyph glyph-name="period" unicode="." horiz-adv-x="231" 
d="M85 22q-8 -26 -36 -26q-14 0 -22.5 9t-5.5 22l10 36q8 26 36 26q14 0 22.5 -9t5.5 -22z" />
    <glyph glyph-name="slash" unicode="/" 
d="M587 788q5 7 10.5 11t13.5 4q9 0 14.5 -6t5.5 -14q0 -5 -2.5 -10t-7.5 -11l-680 -880q-5 -7 -10.5 -11t-13.5 -4q-9 0 -14.5 6t-5.5 14q0 5 2.5 10t7.5 11z" />
    <glyph glyph-name="zero" unicode="0" horiz-adv-x="709" 
d="M317 -12q-58 0 -102 20t-73.5 55t-44.5 83t-15 104q0 86 27 168.5t75 148t114 105.5t144 40q58 0 102 -20t73.5 -55t44.5 -83t15 -104q0 -85 -27 -168t-75 -148.5t-114 -105.5t-144 -40zM320 35q62 0 117 36t96 94.5t65.5 133t24.5 151.5q0 45 -11.5 84t-34.5 68
t-57.5 46t-80.5 17q-61 0 -116.5 -36t-96.5 -94.5t-65.5 -133t-24.5 -151.5q0 -45 11.5 -84t34.5 -68t57.5 -46t80.5 -17z" />
    <glyph glyph-name="one" unicode="1" horiz-adv-x="334" 
d="M150 19q-6 -23 -28 -23q-11 0 -18.5 8t-3.5 22l167 622l-119 -38q-9 -3 -16 -3q-9 0 -14.5 6.5t-5.5 15.5q0 17 18 23l144 48q8 3 17 5t17 2h1q11 0 16.5 -7t1.5 -21z" />
    <glyph glyph-name="two" unicode="2" horiz-adv-x="588" 
d="M8 0q-11 0 -18 5t-7 16q0 13 12 22l413 321q61 48 92 88.5t31 89.5q0 52 -39 86.5t-111 34.5q-61 0 -106.5 -27t-79.5 -59q-5 -5 -10.5 -8t-12.5 -3q-10 0 -16.5 6t-6.5 16q0 12 11 23q47 43 98.5 71t124.5 28q45 0 82 -12t63.5 -34t41.5 -53t15 -68q0 -62 -38.5 -111
t-106.5 -102l-362 -280h376q11 0 18 -7t7 -18t-7 -18t-18 -7h-446z" />
    <glyph glyph-name="three" unicode="3" horiz-adv-x="606" 
d="M21 104q-6 11 -6 21q0 11 7 17.5t17 6.5q8 0 13 -4.5t9 -10.5q28 -45 73 -72t119 -27q46 0 85.5 13t68 36.5t45 55.5t16.5 71q0 68 -53.5 100.5t-142.5 32.5h-15q-10 0 -17 4t-7 14q0 9 9 17l302 272h-346q-11 0 -18 6.5t-7 17.5t7 18t18 7h411q21 0 21 -18
q0 -8 -4 -13.5t-9 -10.5l-301 -272q42 -2 79.5 -13.5t66 -33t45 -52.5t16.5 -72q0 -50 -22 -91.5t-59.5 -71.5t-87 -47t-104.5 -17q-83 0 -140 31t-89 85z" />
    <glyph glyph-name="four" unicode="4" horiz-adv-x="645" 
d="M427 216l109 406l-437 -406h328zM425 19q-6 -23 -28 -23q-11 0 -18 8t-3 22l39 145h-365q-12 0 -20 4.5t-8 15.5q0 8 3.5 13.5t10.5 12.5l514 478q16 14 32 14q13 0 18.5 -9t1.5 -21l-124 -463h88q9 0 16 -6t7 -16t-7 -16.5t-16 -6.5h-100z" />
    <glyph glyph-name="five" unicode="5" horiz-adv-x="601" 
d="M33 89q-11 12 -11 26q0 9 6.5 16t17.5 7q14 0 24 -13q32 -44 78.5 -68t106.5 -24q51 0 93 16.5t71.5 43.5t45.5 62.5t16 73.5q0 36 -13 64t-35.5 47t-53 29t-66.5 10q-72 0 -145 -35q-8 -4 -17.5 -4t-16.5 5q-16 11 -8 37l96 294q5 14 11.5 19t17.5 5h328q11 0 18 -7
t7 -18t-7 -18t-18 -7h-317l-86 -257q11 6 28 12t36 10.5t38.5 7.5t34.5 3q51 0 92 -13.5t70 -39t44.5 -61.5t15.5 -81q0 -49 -20.5 -93t-57.5 -77.5t-89 -53t-116 -19.5q-78 0 -129.5 28t-89.5 73z" />
    <glyph glyph-name="six" unicode="6" horiz-adv-x="640" 
d="M635 637q11 -11 11 -23q0 -11 -7 -18t-17 -7q-11 0 -20 9q-30 29 -67.5 48t-90.5 19q-99 0 -181 -82q-24 -24 -45 -54.5t-37 -65t-26.5 -72t-13.5 -74.5q16 24 37.5 45t49 37.5t60.5 26t71 9.5q53 0 95 -17t70.5 -45t43.5 -65t15 -77q0 -49 -20 -93t-55.5 -77.5t-84 -53
t-106.5 -19.5q-51 0 -94 17.5t-72 46.5q-32 32 -50 78.5t-18 114.5q0 58 10.5 111.5t29.5 100t44.5 86t55.5 69.5q100 100 224 100q66 0 111 -21.5t77 -53.5zM320 34q46 0 84.5 16t66 43t43 63t15.5 75q0 28 -10.5 55.5t-31.5 50t-53.5 36.5t-77.5 14q-48 0 -87.5 -16
t-67.5 -42t-43.5 -59.5t-15.5 -68.5q0 -38 12 -67t34 -51q26 -26 60 -37.5t72 -11.5z" />
    <glyph glyph-name="seven" unicode="7" horiz-adv-x="578" 
d="M150 14q-5 -7 -12 -12.5t-17 -5.5q-22 0 -22 20q0 10 10 24l442 610h-374q-11 0 -18 7t-7 18t7 18t18 7h425q21 0 21 -18q0 -8 -4 -14.5t-8 -11.5z" />
    <glyph glyph-name="eight" unicode="8" horiz-adv-x="641" 
d="M295 -10q-58 0 -105 14.5t-80.5 39.5t-51.5 58.5t-18 70.5q0 42 16.5 76t45.5 58.5t68 40.5t84 23q-44 16 -75.5 54t-31.5 95q0 41 19.5 75.5t53 60t79 40t97.5 14.5q51 0 93.5 -13t73 -37t48 -57t17.5 -72q0 -37 -14.5 -67.5t-39 -53.5t-57.5 -38.5t-70 -22.5
q23 -8 45 -22.5t39.5 -34.5t28 -45.5t10.5 -55.5q0 -44 -21 -81t-58 -63.5t-87 -41.5t-109 -15zM375 380q50 0 87 13t62 34t37.5 47.5t12.5 53.5q0 30 -13 54.5t-36.5 42.5t-56.5 28t-72 10q-44 0 -80 -11.5t-61.5 -31t-39.5 -46.5t-14 -58q0 -29 12.5 -54t35.5 -43
t55 -28.5t71 -10.5zM298 37q50 0 90 11.5t68.5 32.5t44 49.5t15.5 62.5q0 29 -14 55t-40 45.5t-63.5 31.5t-84.5 12q-51 0 -92 -13t-69.5 -34.5t-43.5 -50t-15 -60.5q0 -31 14.5 -57t41 -45t64.5 -29.5t84 -10.5z" />
    <glyph glyph-name="nine" unicode="9" horiz-adv-x="640" 
d="M243 -13q-62 0 -108.5 21.5t-85.5 59.5q-11 11 -11 23q0 11 7 18t17 7q11 0 20 -9q32 -34 71.5 -53.5t92.5 -19.5q98 0 180 82q48 48 82 118t40 145q-15 -22 -35.5 -44t-47.5 -39.5t-61 -28.5t-76 -11q-53 0 -95 17t-70.5 46t-43 66.5t-14.5 78.5q0 50 20.5 94.5t56 78.5
t84.5 54t107 20q51 0 93.5 -17.5t71.5 -46.5q32 -32 50 -78.5t18 -114.5q0 -58 -10.5 -111.5t-29.5 -100t-44.5 -86t-55.5 -69.5q-50 -50 -105 -75t-118 -25zM335 304q47 0 85.5 16.5t67 44t44 63t15.5 72.5q0 69 -46 115q-26 26 -60 38t-72 12q-46 0 -84.5 -16.5t-66 -44
t-43.5 -64t-16 -76.5q0 -29 10 -57.5t31.5 -51.5t55 -37t79.5 -14z" />
    <glyph glyph-name="colon" unicode=":" horiz-adv-x="241" 
d="M90 22q-8 -26 -36 -26q-14 0 -22.5 9t-5.5 22l10 36q8 26 36 26q14 0 22.5 -9t5.5 -22zM204 447q-8 -26 -36 -26q-14 0 -22.5 9t-5.5 22l10 36q8 26 36 26q14 0 22.5 -9t5.5 -22z" />
    <glyph glyph-name="semicolon" unicode=";" horiz-adv-x="241" 
d="M-25 -79q32 14 48.5 32t22.5 47q-8 1 -15.5 8.5t-3.5 21.5l9 33q8 26 36 26q14 0 23 -9.5t5 -23.5l-12 -45q-8 -27 -17.5 -45.5t-22.5 -31.5t-28.5 -21.5t-35.5 -15.5q-8 -3 -13.5 0.5t-5.5 10.5q0 9 10 13zM204 447q-8 -26 -36 -26q-14 0 -22.5 9t-5.5 22l10 36
q8 26 36 26q14 0 22.5 -9t5.5 -22z" />
    <glyph glyph-name="less" unicode="&#x3c;" horiz-adv-x="620" 
d="M576 592q12 6 23 6q10 0 15 -7t5 -15q0 -16 -19 -25l-451 -203l332 -199q15 -8 15 -23q0 -10 -6.5 -17t-16.5 -7q-5 0 -10 2t-9 4l-351 211q-19 12 -19 27v1q0 22 27 33z" />
    <glyph glyph-name="equal" unicode="=" horiz-adv-x="620" 
d="M160 439q-11 0 -18.5 7t-7.5 18t7.5 18.5t18.5 7.5h410q11 0 18.5 -7.5t7.5 -18.5t-7.5 -18t-18.5 -7h-410zM100 214q-11 0 -18.5 7t-7.5 18t7.5 18.5t18.5 7.5h410q11 0 18.5 -7.5t7.5 -18.5t-7.5 -18t-18.5 -7h-410z" />
    <glyph glyph-name="greater" unicode="&#x3e;" horiz-adv-x="620" 
d="M95 112q-12 -6 -23 -6q-10 0 -15 7t-5 15q0 16 19 25l451 203l-332 199q-15 8 -15 23q0 10 6.5 17t16.5 7q5 0 10 -2t9 -4l351 -211q19 -12 19 -27v-1q0 -22 -27 -33z" />
    <glyph glyph-name="question" unicode="?" horiz-adv-x="534" 
d="M144 585q-5 -4 -10 -7t-11 -3q-10 0 -16.5 6.5t-6.5 15.5q0 10 8 18q18 17 40.5 33.5t51 30t61.5 22t72 8.5q47 0 84 -13t63 -36.5t40 -55.5t14 -70q0 -50 -21.5 -88.5t-58 -66.5t-84.5 -45.5t-101 -25.5l-39 -114q-5 -15 -17 -15h-1q-8 0 -12.5 5.5t-2.5 16.5l24 126
q3 21 24 24q51 5 94.5 19.5t75 37.5t49 54.5t17.5 70.5q0 32 -12 56t-32.5 40t-48 24.5t-59.5 8.5q-57 0 -103.5 -23t-81.5 -54zM199 20q-3 -12 -12.5 -18t-23.5 -6t-22.5 8.5t-5.5 21.5l10 37q8 26 36 26q14 0 22.5 -9t5.5 -22z" />
    <glyph glyph-name="at" unicode="@" horiz-adv-x="980" 
d="M445 118q38 0 75 17.5t66 46.5t47 66.5t18 76.5q0 57 -34 93.5t-94 36.5q-39 0 -73.5 -17.5t-60 -47t-40.5 -68.5t-15 -83q0 -58 31.5 -89.5t79.5 -31.5zM695 -118q-33 -15 -84.5 -29t-124.5 -14q-96 0 -173.5 28t-132 79.5t-84.5 124t-30 160.5q0 97 39 184t105.5 153
t156 105t190.5 39q93 0 165.5 -27.5t123 -75t76.5 -112t26 -138.5q0 -71 -19.5 -124.5t-50 -89.5t-67 -54t-69.5 -18q-54 0 -84 27t-37 73q-79 -102 -186 -102q-33 0 -61.5 11.5t-49.5 33t-33.5 52t-12.5 69.5q0 55 21 103t55 84t78 57t89 21q32 0 57 -9t44 -24t32.5 -34.5
t20.5 -40.5l25 82q3 9 8.5 15t16.5 6q13 0 20 -9.5t2 -24.5l-70 -226q-8 -26 -7.5 -49t9 -40.5t25.5 -27.5t43 -10q25 0 54 15t54 45.5t41.5 77.5t16.5 111q0 67 -24 125.5t-70 102t-112 68.5t-150 25q-94 0 -177 -36.5t-145 -98t-98 -143t-36 -171.5q0 -81 27.5 -147.5
t77.5 -113.5t121.5 -73t158.5 -26q65 0 113.5 12.5t81.5 27.5q6 3 12 3q8 0 11.5 -5t3.5 -11q0 -10 -13 -16z" />
    <glyph glyph-name="A" unicode="A" horiz-adv-x="741" 
d="M569 243l-75 405l-294 -405h369zM661 36q2 -8 2 -16q0 -9 -7 -16.5t-18 -7.5q-22 0 -27 25l-32 175h-413l-131 -181q-6 -8 -12.5 -13.5t-15.5 -5.5q-8 0 -15 6t-7 17q0 9 6 15l473 648q8 10 16.5 17.5t22.5 7.5h2q14 0 21.5 -7t9.5 -18z" />
    <glyph glyph-name="B" unicode="B" horiz-adv-x="717" 
d="M405 377q53 0 96.5 11.5t74 32.5t47 50.5t16.5 64.5q0 58 -43 87t-118 29h-215l-74 -275h216zM354 48q109 0 172 41.5t63 116.5q0 31 -14 54t-38.5 38.5t-58.5 23t-74 7.5h-228l-75 -281h253zM65 0q-11 0 -18 7.5t-4 18.5l174 648q3 11 11 18.5t19 7.5h236q96 0 153 -42
t57 -117q0 -39 -14.5 -70.5t-39.5 -55.5t-59 -39.5t-72 -23.5q27 -7 51.5 -19t43 -30t29 -42t10.5 -55q0 -45 -20 -83t-58 -65t-91.5 -42.5t-121.5 -15.5h-286z" />
    <glyph glyph-name="C" unicode="C" horiz-adv-x="738" 
d="M639 92q-24 -22 -50.5 -41t-58 -33.5t-69 -22.5t-83.5 -8q-58 0 -110 19.5t-91 56t-62 89.5t-23 119q0 85 33 164.5t89.5 141t132.5 98.5t163 37q85 0 147 -35.5t95 -89.5q3 -5 5 -10t2 -12q-1 -10 -8 -17t-18 -6q-5 0 -11 2.5t-10 8.5q-15 24 -33.5 44.5t-43 35.5
t-56 23.5t-72.5 8.5q-76 0 -141.5 -33.5t-114.5 -88.5t-77 -125.5t-28 -144.5q0 -55 18 -99t49.5 -75t75 -47.5t94.5 -16.5q72 0 124 24t99 68q3 3 8 6t11 3q10 0 17 -7t7 -17q0 -6 -3.5 -11.5t-6.5 -8.5z" />
    <glyph glyph-name="D" unicode="D" horiz-adv-x="771" 
d="M272 48q95 0 173.5 31t136.5 89q45 45 69.5 104.5t24.5 129.5q0 108 -65 171q-39 39 -98.5 59t-134.5 20h-115l-162 -604h171zM381 700q82 0 153 -23t119 -71q37 -37 57 -86t20 -114q0 -81 -28 -149.5t-81 -121.5q-63 -63 -155 -99t-201 -36h-200q-11 0 -18 7.5t-4 18.5
l174 648q3 11 11 18.5t19 7.5h134z" />
    <glyph glyph-name="E" unicode="E" horiz-adv-x="649" 
d="M65 0q-11 0 -18 7.5t-4 18.5l174 648q3 11 11 18.5t19 7.5h443q10 0 17 -7t7 -17t-7 -17t-17 -7h-427l-74 -275h369q10 0 17 -7t7 -17t-7 -17t-17 -7h-382l-75 -281h419q10 0 17 -7t7 -17t-7 -17t-17 -7h-455z" />
    <glyph glyph-name="F" unicode="F" horiz-adv-x="656" 
d="M690 700q10 0 17 -7t7 -17t-7 -17t-17 -7h-427l-77 -287h369q10 0 17 -7t7 -17t-7 -17t-17 -7h-382l-79 -295q-3 -11 -11 -18.5t-19 -7.5t-18 7.5t-4 18.5l175 652q3 11 11 18.5t19 7.5h443z" />
    <glyph glyph-name="G" unicode="G" horiz-adv-x="786" 
d="M649 83q-3 -11 -8 -18.5t-17 -14.5q-53 -30 -106 -46.5t-122 -16.5q-65 0 -120.5 21t-96 59t-63 93t-22.5 122q0 81 32.5 158.5t89.5 137.5t135.5 97t169.5 37q89 0 145.5 -29.5t92.5 -74.5q4 -5 7 -10t3 -12q0 -10 -6.5 -17.5t-17.5 -7.5q-13 0 -21 11
q-12 18 -30.5 34.5t-44 29.5t-58.5 21t-75 8q-79 0 -146.5 -33t-116.5 -86.5t-77 -122t-28 -139.5q0 -58 18.5 -104.5t51.5 -79t79 -49.5t102 -17q63 0 113.5 16t88.5 41l64 224h-209q-10 0 -17 7t-7 17t7 17t17 7h242q13 0 19.5 -9t3.5 -19z" />
    <glyph glyph-name="H" unicode="H" horiz-adv-x="756" 
d="M588 19q-6 -23 -28 -23q-11 0 -18.5 8t-3.5 22l81 302h-443l-83 -309q-6 -23 -28 -23q-11 0 -18.5 8t-3.5 22l176 655q6 23 28 23q11 0 18.5 -8t3.5 -22l-80 -298h443l82 305q6 23 28 23q11 0 18.5 -8t3.5 -22z" />
    <glyph glyph-name="I" unicode="I" horiz-adv-x="274" 
d="M100 19q-6 -23 -28 -23q-11 0 -18.5 8t-3.5 22l176 655q6 23 28 23q11 0 18.5 -8t3.5 -22z" />
    <glyph glyph-name="J" unicode="J" horiz-adv-x="538" 
d="M449 235q-16 -60 -38 -103t-55 -76q-32 -32 -74.5 -49t-85.5 -17q-78 0 -123.5 36.5t-70.5 99.5q-3 8 -3 17q0 11 7 17.5t17 6.5q18 0 25 -20q39 -110 146 -110q75 0 127 52q27 27 45.5 65t32.5 88l118 439q6 23 28 23q11 0 18.5 -8t3.5 -22z" />
    <glyph glyph-name="K" unicode="K" horiz-adv-x="714" 
d="M93 19q-6 -23 -28 -23q-11 0 -18.5 8t-3.5 22l176 655q6 23 28 23q11 0 18.5 -8t3.5 -22l-115 -429l554 450q11 9 22 9t17 -6.5t6 -16.5q0 -12 -12 -21l-339 -273l190 -347q6 -10 6 -19q0 -11 -7 -18t-18 -7q-17 0 -27 18l-187 343l-224 -182z" />
    <glyph glyph-name="L" unicode="L" horiz-adv-x="600" 
d="M65 0q-11 0 -18 7.5t-4 18.5l176 655q6 23 28 23q11 0 18.5 -8t3.5 -22l-168 -626h384q10 0 17 -7t7 -17t-7 -17t-17 -7h-420z" />
    <glyph glyph-name="M" unicode="M" horiz-adv-x="869" 
d="M853 703q14 0 20.5 -9t2.5 -23l-175 -652q-6 -23 -29 -23q-11 0 -18 8t-3 22l156 582l-356 -373q-6 -6 -12 -10t-13 -4q-6 0 -12 3.5t-9 11.5l-156 372l-157 -588q-6 -24 -28 -24q-11 0 -18 8t-3 22l174 648q4 14 10.5 21.5t18.5 7.5h1q19 0 27 -20l163 -397l375 396
q10 11 19 16t21 5h1z" />
    <glyph glyph-name="N" unicode="N" horiz-adv-x="786" 
d="M747 681q6 23 27 23q11 0 18 -8t3 -22l-176 -655q-6 -22 -24 -22h-1q-9 0 -15.5 6t-11.5 15l-313 608l-163 -607q-6 -23 -27 -23q-11 0 -18 8t-3 22l175 651q3 11 10.5 18.5t19.5 7.5h2q11 0 19.5 -7.5t14.5 -18.5l303 -590z" />
    <glyph glyph-name="O" unicode="O" horiz-adv-x="846" 
d="M398 -13q-66 0 -121.5 23.5t-95.5 64t-62.5 95.5t-22.5 118q0 82 31.5 158.5t86.5 135.5t128 94.5t157 35.5q66 0 121.5 -23.5t95.5 -64t62.5 -95.5t22.5 -118q0 -82 -31.5 -158.5t-86.5 -135.5t-128 -94.5t-157 -35.5zM398 34q74 0 137.5 32t110.5 84.5t74 120.5t27 140
q0 54 -18 100t-50.5 80.5t-78 54t-101.5 19.5q-74 0 -137.5 -32t-110.5 -84.5t-74 -120.5t-27 -140q0 -54 18 -100t50.5 -80.5t78 -54t101.5 -19.5z" />
    <glyph glyph-name="P" unicode="P" horiz-adv-x="663" 
d="M93 19q-6 -23 -28 -23q-11 0 -18.5 8t-3.5 22l174 648q3 11 11 18.5t19 7.5h195q63 0 112 -15.5t81 -47.5q48 -48 48 -125q0 -60 -24 -106.5t-69 -78.5t-109 -48.5t-144 -16.5h-178zM339 309q142 0 217 52t75 149q0 57 -36 93q-49 49 -154 49h-178l-92 -343h168z" />
    <glyph glyph-name="Q" unicode="Q" horiz-adv-x="846" 
d="M623 126q58 54 91 129t33 156q0 54 -18 100t-50.5 80.5t-78 54t-101.5 19.5q-74 0 -137.5 -32t-110.5 -84.5t-74 -120.5t-27 -140q0 -54 18 -100t50.5 -80.5t78 -54t101.5 -19.5q54 0 101.5 17t88.5 46l-98 109l-9 11t-4 13q0 25 24 25q12 0 22 -12zM620 61
q-48 -35 -104 -54.5t-118 -19.5q-66 0 -121.5 23.5t-95.5 64t-62.5 95.5t-22.5 118q0 82 31.5 158.5t86.5 135.5t128 94.5t157 35.5q66 0 121.5 -23.5t95.5 -64t62.5 -95.5t22.5 -118q0 -92 -39.5 -176.5t-106.5 -144.5l57 -62l8.5 -10.5t3.5 -12.5q0 -10 -6.5 -16.5
t-17.5 -6.5q-13 0 -23 12z" />
    <glyph glyph-name="R" unicode="R" horiz-adv-x="713" 
d="M93 19q-6 -23 -28 -23q-11 0 -18.5 8t-3.5 22l174 648q3 11 11 18.5t19 7.5h228q126 0 188 -62q44 -44 44 -114q0 -44 -16.5 -80.5t-45.5 -65.5q-35 -35 -88.5 -55.5t-117.5 -27.5l132 -253q7 -13 7 -22q0 -11 -7.5 -17.5t-18.5 -6.5q-17 0 -25 16l-144 278h-217z
M388 337q78 0 133 19.5t87 51.5q47 47 47 113q0 52 -31 83q-23 23 -60 35.5t-91 12.5h-210l-85 -315h210z" />
    <glyph glyph-name="S" unicode="S" horiz-adv-x="638" 
d="M304 37q43 0 80 11.5t64 32t42.5 48.5t15.5 61q0 23 -8 41.5t-26 35t-47.5 32.5t-71.5 32q-54 21 -92 40.5t-62 41t-35 47t-11 57.5q0 40 18 75t51 61.5t79 41.5t103 15q78 0 133.5 -26.5t90.5 -59.5q5 -5 8 -9.5t3 -12.5q0 -11 -7 -18t-18 -7q-12 0 -22 10
q-37 37 -84.5 56.5t-108.5 19.5q-45 0 -81 -12t-60.5 -31.5t-38 -45t-13.5 -53.5q0 -49 40.5 -79.5t126.5 -63.5q98 -37 142 -78t44 -106q0 -43 -19.5 -80t-54 -64.5t-82.5 -43.5t-104 -16q-165 0 -263 113q-3 4 -6.5 9.5t-3.5 12.5q0 11 6.5 18t17.5 7q13 0 22 -12
q42 -49 96.5 -75t135.5 -26z" />
    <glyph glyph-name="T" unicode="T" horiz-adv-x="615" 
d="M266 19q-6 -23 -28 -23q-11 0 -18.5 8t-3.5 22l168 626h-217q-10 0 -17 7t-7 17t7 17t17 7h499q10 0 17 -7t7 -17t-7 -17t-17 -7h-230z" />
    <glyph glyph-name="U" unicode="U" horiz-adv-x="756" 
d="M670 283q-18 -67 -46 -118t-65 -88q-43 -43 -96.5 -65.5t-114.5 -22.5q-63 0 -110 17t-78.5 46.5t-47.5 69.5t-16 87q0 29 3.5 55.5t10.5 52.5l97 364q6 23 28 23q11 0 18.5 -8t3.5 -22l-101 -381q-4 -15 -6.5 -36t-2.5 -44q0 -37 12.5 -69.5t37.5 -56.5t64 -37.5
t91 -13.5q47 0 91 18t80 54q29 29 55 75.5t43 110.5l104 387q6 23 28 23q11 0 18.5 -8t3.5 -22z" />
    <glyph glyph-name="V" unicode="V" horiz-adv-x="714" 
d="M322 19q-7 -10 -16 -18t-22 -8h-2q-12 0 -18.5 7.5t-8.5 18.5l-107 645q-2 10 -2 16q0 11 7.5 17.5t18.5 6.5q24 0 27 -25l96 -623l436 629q13 19 29 19q9 0 15.5 -5t6.5 -15t-8 -21z" />
    <glyph glyph-name="W" unicode="W" horiz-adv-x="1074" 
d="M723 18q-7 -11 -13.5 -18.5t-19.5 -7.5h-2q-12 0 -17 7.5t-6 18.5l-40 585l-354 -585q-6 -11 -13 -18.5t-20 -7.5h-2q-12 0 -17 7.5t-6 18.5l-60 646q0 2 -0.5 6.5t-0.5 7.5q0 11 8 18.5t19 7.5q25 0 27 -27l51 -600l363 610q10 17 27 17h1q11 0 16 -6t6 -15l37 -606
l377 607q12 20 31 20q9 0 15 -6t6 -14q0 -10 -6 -19z" />
    <glyph glyph-name="X" unicode="X" horiz-adv-x="692" 
d="M575 40q3 -6 5 -11t2 -11q0 -8 -6.5 -15t-17.5 -7q-15 0 -23 15l-167 312l-313 -312q-6 -6 -12.5 -10.5t-14.5 -4.5q-10 0 -16 6t-6 15q0 11 10 21l327 324l-164 298q-3 6 -5 11t-2 11q0 8 6.5 15t17.5 7q16 0 23 -15l161 -297l299 297q6 6 12.5 10.5t14.5 4.5
q10 0 16 -6t6 -15q0 -11 -10 -21l-313 -309z" />
    <glyph glyph-name="Y" unicode="Y" horiz-adv-x="668" 
d="M291 19q-6 -23 -28 -23q-11 0 -18.5 8t-3.5 22l69 258l-166 377q-4 9 -4 18q0 11 7 18t18 7t16.5 -6t10.5 -17l153 -357l354 366q6 6 12.5 10t15.5 4t16 -6t7 -16q0 -8 -3.5 -13.5t-8.5 -10.5l-380 -387z" />
    <glyph glyph-name="Z" unicode="Z" horiz-adv-x="662" 
d="M625 653h-425q-10 0 -17 6.5t-7 16.5t7 17t17 7h489q20 0 20 -17v-1q0 -13 -14 -27l-620 -608h445q10 0 17 -6.5t7 -16.5t-7 -17t-17 -7h-509q-20 0 -20 17v1q0 13 14 27z" />
    <glyph glyph-name="bracketleft" unicode="[" horiz-adv-x="430" 
d="M274 662l-202 -754h207q8 0 13.5 -5.5t5.5 -13.5t-5.5 -13.5t-13.5 -5.5h-231q-14 0 -21 8.5t-3 21.5l208 774q7 26 34 26h225q8 0 13.5 -5.5t5.5 -13.5t-5.5 -13.5t-13.5 -5.5h-217z" />
    <glyph glyph-name="backslash" unicode="\" 
d="M405 -98q2 -8 2 -13q0 -9 -6 -15t-15 -6q-18 0 -22 21l-210 879q-2 8 -2 13q0 9 6 15t15 6q18 0 22 -21z" />
    <glyph glyph-name="bracketright" unicode="]" horiz-adv-x="430" 
d="M-46 -130q-8 0 -13.5 5.5t-5.5 13.5t5.5 13.5t13.5 5.5h217l202 754h-207q-8 0 -13.5 5.5t-5.5 13.5t5.5 13.5t13.5 5.5h231q14 0 21 -8.5t3 -21.5l-208 -774q-6 -26 -34 -26h-225z" />
    <glyph glyph-name="asciicircum" unicode="^" 
d="M329 689q8 8 15.5 13t18.5 5h4q19 0 27 -18l85 -176q4 -8 4 -12q0 -12 -17 -12q-22 0 -30 16l-77 155l-162 -156q-16 -15 -37 -15q-9 0 -12 4t-3 8q0 7 9 16z" />
    <glyph glyph-name="underscore" unicode="_" horiz-adv-x="600" 
d="M-107 -160q-9 0 -15.5 6.5t-6.5 15.5t6.5 15.5t15.5 6.5h604q9 0 15.5 -6.5t6.5 -15.5t-6.5 -15.5t-15.5 -6.5h-604z" />
    <glyph glyph-name="grave" unicode="`" 
d="M300 684q-7 8 -7 16t12.5 15.5t26.5 7.5q9 0 16.5 -4t11.5 -14l36 -92q1 -2 2 -5t1 -7q0 -9 -13 -9q-10 0 -15 3t-10 9z" />
    <glyph glyph-name="a" unicode="a" horiz-adv-x="571" 
d="M199 33q36 0 72 12t67.5 34.5t55 53.5t33.5 70l12 45q-39 10 -87.5 17t-105.5 7q-38 0 -69.5 -10t-54 -28t-35 -42.5t-12.5 -54.5q0 -48 33.5 -76t90.5 -28zM398 -4q-11 0 -17 8t-3 20l17 64q-37 -44 -87.5 -72t-117.5 -28q-32 0 -62 9t-53.5 27t-37.5 44.5t-14 62.5
q0 42 17 76.5t47.5 58.5t73 37t92.5 13q55 0 106.5 -9t89.5 -20l4 14q3 11 5 25.5t2 25.5q0 58 -39.5 89t-114.5 31q-41 0 -72.5 -6.5t-56.5 -14.5q-8 -2 -13 -2q-20 0 -20 22q0 17 19 23q36 12 70.5 18t76.5 6q94 0 146 -42.5t52 -116.5q0 -14 -2.5 -32t-7.5 -35l-73 -273
q-6 -23 -27 -23z" />
    <glyph glyph-name="b" unicode="b" horiz-adv-x="654" 
d="M312 -13q-43 0 -76.5 12t-58 32t-41.5 46t-27 53l-30 -111q-6 -23 -27 -23q-11 0 -17 8t-3 20l184 687q6 23 27 23q11 0 17 -8t3 -20l-80 -296q38 46 90.5 79t121.5 33q44 0 81.5 -16t65 -44.5t43 -68t15.5 -86.5q0 -68 -23.5 -126.5t-63.5 -101.5t-92 -67.5t-109 -24.5z
M310 33q52 0 95.5 22t75 59t49 85.5t17.5 101.5q0 39 -11.5 71.5t-32.5 55.5t-50 35.5t-64 12.5q-48 0 -93.5 -22.5t-81.5 -59t-58 -84.5t-22 -99q0 -37 12.5 -69.5t36 -56.5t56 -38t71.5 -14z" />
    <glyph glyph-name="c" unicode="c" horiz-adv-x="563" 
d="M459 62q-38 -33 -84 -53.5t-103 -20.5q-42 0 -82 14.5t-71 43t-50 69.5t-19 93q0 63 24 119.5t65.5 100t96 69t114.5 25.5q70 0 116 -30t72 -71q7 -10 7 -20q0 -9 -6.5 -15.5t-15.5 -6.5q-15 0 -24 13q-25 37 -60 60.5t-92 23.5q-49 0 -93 -21.5t-77.5 -58.5t-53.5 -84.5
t-20 -100.5q0 -43 14.5 -76t38.5 -55.5t55 -34t64 -11.5q43 0 80.5 16t72.5 46q8 7 19 7q9 0 15 -6.5t6 -15.5q0 -10 -9 -19z" />
    <glyph glyph-name="d" unicode="d" horiz-adv-x="654" 
d="M265 33q48 0 93.5 22.5t81.5 59t58 84.5t22 99q0 37 -12.5 69.5t-36 56.5t-56 38t-71.5 14q-52 0 -95.5 -22t-75 -59t-49 -85.5t-17.5 -101.5q0 -39 11.5 -71.5t32.5 -55.5t50 -35.5t64 -12.5zM471 -4q-11 0 -17 8t-3 20l19 75q-38 -46 -90 -79t-121 -33q-44 0 -81.5 16
t-65 44.5t-43 68t-15.5 86.5q0 68 23.5 126.5t63.5 101.5t92 67.5t109 24.5q43 0 76.5 -12t58 -32t41.5 -46t27 -53l89 332q6 23 27 23q11 0 17 -8t3 -20l-183 -687q-6 -23 -27 -23z" />
    <glyph glyph-name="e" unicode="e" horiz-adv-x="583" 
d="M484 282q2 7 3 17.5t1 24.5q0 31 -8.5 58.5t-26.5 48.5t-45 33.5t-64 12.5q-43 0 -80 -15.5t-67 -42.5t-51 -62.5t-32 -74.5h370zM272 34q48 0 86.5 14.5t74.5 43.5q9 7 19 7q9 0 15 -6t6 -15q0 -12 -10 -20q-38 -32 -84 -51t-107 -19q-49 0 -89.5 15.5t-70 44t-46 68
t-16.5 86.5q0 60 23 117.5t62.5 102.5t93.5 72.5t116 27.5q48 0 84 -15.5t60.5 -42.5t36.5 -62.5t12 -74.5q0 -20 -2.5 -37.5t-4.5 -28.5q-5 -23 -30 -23h-396q-1 -8 -1.5 -17t-0.5 -17q0 -39 12.5 -70t34.5 -53.5t53.5 -34.5t68.5 -12z" />
    <glyph glyph-name="f" unicode="f" horiz-adv-x="362" 
d="M109 19q-6 -23 -27 -23q-11 0 -17 8t-3 20l118 441h-48q-10 0 -16.5 6.5t-6.5 16.5q0 9 7 15.5t16 6.5h60l20 74q39 146 163 146q23 0 44 -4t38 -11q20 -8 20 -25q0 -11 -9 -18t-23 -1q-17 7 -34.5 11t-37.5 4q-40 0 -70 -26.5t-45 -86.5l-17 -63h158q10 0 16.5 -6.5
t6.5 -16.5q0 -9 -7 -15.5t-16 -6.5h-170z" />
    <glyph glyph-name="g" unicode="g" horiz-adv-x="654" 
d="M282 84q48 0 92 19.5t78 51.5t54 73t20 84q0 30 -12 59.5t-35.5 52.5t-56.5 37t-75 14q-45 0 -87 -17t-74.5 -48.5t-52.5 -74.5t-20 -96q0 -38 14.5 -67t38 -48.5t54 -29.5t62.5 -10zM576 491q6 23 27 23q11 0 17 -8t3 -20l-112 -423q-14 -53 -34 -89.5t-46 -62.5
q-36 -36 -83.5 -54.5t-111.5 -18.5q-60 0 -119 21t-107 61q-11 9 -11 23q0 9 6.5 16t16.5 7q11 0 20 -7q40 -34 88 -54.5t108 -20.5q54 0 93 16t64 41q26 26 42 58.5t28 75.5l18 64q-38 -40 -89.5 -70.5t-120.5 -30.5q-41 0 -79.5 13.5t-68 39t-47.5 62.5t-18 83
q0 64 25 116.5t65.5 90t92.5 58.5t106 21q44 0 76.5 -12t56 -31t39.5 -43.5t27 -49.5z" />
    <glyph glyph-name="h" unicode="h" horiz-adv-x="609" 
d="M463 19q-6 -23 -27 -23q-11 0 -17 8t-3 20l71 268q4 14 6 31.5t2 31.5q0 57 -35 90t-96 33q-33 0 -66 -14t-62 -39.5t-51.5 -60t-33.5 -76.5l-72 -269q-6 -23 -27 -23q-11 0 -17 8t-3 20l184 687q6 23 27 23q11 0 17 -8t3 -20l-78 -291q38 45 83.5 76t109.5 31
q76 0 121.5 -44t45.5 -118q0 -17 -3 -35.5t-8 -36.5z" />
    <glyph glyph-name="i" unicode="i" horiz-adv-x="250" 
d="M265 661q-6 -23 -34 -23q-14 0 -21.5 8t-4.5 20l7 26q6 23 34 23q14 0 21.5 -8t4.5 -20zM86 19q-6 -23 -27 -23q-11 0 -17 8t-3 20l125 467q6 23 27 23q11 0 17 -8t3 -20z" />
    <glyph glyph-name="j" unicode="j" horiz-adv-x="249" 
d="M67 -52q-14 -53 -45 -82t-74 -29q-32 0 -47.5 6t-15.5 21q0 11 7.5 17.5t21.5 4.5q5 -1 14 -2t17 -1q24 0 44 16.5t30 52.5l145 539q6 23 27 23q11 0 17 -8t3 -20zM265 661q-6 -23 -34 -23q-14 0 -21.5 8t-4.5 20l7 26q6 23 34 23q14 0 21.5 -8t4.5 -20z" />
    <glyph glyph-name="k" unicode="k" horiz-adv-x="560" 
d="M125 189l391 317q4 3 9.5 5.5t11.5 2.5q9 0 15 -5t6 -15q0 -12 -11 -20l-239 -192l131 -243q7 -12 7 -19q0 -11 -7 -17.5t-18 -6.5q-16 0 -25 17l-129 239l-160 -128l-28 -105q-6 -23 -27 -23q-11 0 -17 8t-3 20l184 687q6 23 27 23q11 0 17 -8t3 -20z" />
    <glyph glyph-name="l" unicode="l" horiz-adv-x="250" 
d="M86 19q-6 -23 -27 -23q-11 0 -17 8t-3 20l184 687q6 23 27 23q11 0 17 -8t3 -20z" />
    <glyph glyph-name="m" unicode="m" horiz-adv-x="951" 
d="M467 292q4 14 6 31.5t2 31.5q0 57 -32.5 90t-88.5 33q-31 0 -62.5 -14.5t-59 -40t-49 -60t-32.5 -75.5l-72 -269q-6 -23 -27 -23q-11 0 -17 8t-3 20l124 467q6 23 27 23q11 0 17 -8t3 -20l-18 -71q38 46 80 76.5t103 30.5q35 0 61 -11t44 -28.5t29 -40t15 -45.5
q35 57 88.5 91t125.5 34q35 0 64 -12t50 -33.5t33 -51t12 -65.5q0 -17 -4 -35.5t-9 -36.5l-71 -269q-6 -23 -27 -23q-11 0 -17 8t-3 20l71 268q4 14 6 31.5t2 31.5q0 57 -32.5 90t-88.5 33q-31 0 -62.5 -14.5t-59 -40t-49 -60t-32.5 -75.5l-71 -269q-6 -23 -27 -23
q-11 0 -17 8t-3 20z" />
    <glyph glyph-name="n" unicode="n" horiz-adv-x="611" 
d="M183 514q11 0 17 -8t3 -20l-18 -71q38 45 83.5 76t109.5 31q76 0 121.5 -44t45.5 -118q0 -17 -3 -35.5t-8 -36.5l-71 -269q-6 -23 -27 -23q-11 0 -17 8t-3 20l71 268q4 14 6 31.5t2 31.5q0 57 -35 90t-96 33q-33 0 -66 -14t-62 -39.5t-51.5 -60t-33.5 -76.5l-72 -269
q-6 -23 -27 -23q-11 0 -17 8t-3 20l124 467q6 23 27 23z" />
    <glyph glyph-name="o" unicode="o" horiz-adv-x="633" 
d="M278 -12q-51 0 -92.5 17t-71.5 47t-46.5 71.5t-16.5 90.5q0 60 24.5 116t66 98.5t96.5 68t116 25.5q51 0 92.5 -17t71.5 -47t46.5 -71.5t16.5 -90.5q0 -62 -25 -118t-67 -98t-97 -67t-114 -25zM283 34q47 0 91 21t78 56.5t55 82.5t21 100q0 87 -49.5 134.5t-129.5 47.5
q-48 0 -92.5 -21.5t-78.5 -57.5t-54 -83t-20 -98q0 -87 49.5 -134.5t129.5 -47.5z" />
    <glyph glyph-name="p" unicode="p" horiz-adv-x="654" 
d="M389 476q-48 0 -93.5 -22.5t-81.5 -59t-58 -84.5t-22 -99q0 -37 12.5 -69.5t36 -56.5t56 -38t71.5 -14q52 0 95.5 22t75 59t49 85.5t17.5 101.5q0 39 -11.5 71.5t-32.5 55.5t-50 35.5t-64 12.5zM183 514q11 0 17 -8t3 -20l-20 -76q38 46 90.5 79t121.5 33q44 0 81.5 -16
t65 -44.5t43 -68t15.5 -86.5q0 -68 -23.5 -126.5t-63.5 -101.5t-92 -67.5t-109 -24.5q-43 0 -76.5 12t-58 32t-41.5 46t-27 53l-73 -271q-6 -23 -27 -23q-11 0 -17 8t-3 20l167 627q6 23 27 23z" />
    <glyph glyph-name="q" unicode="q" horiz-adv-x="654" 
d="M342 522q43 0 76.5 -12t58 -31.5t41.5 -45.5t27 -53l30 111q6 23 27 23q11 0 17 -8t3 -20l-167 -627q-6 -23 -27 -23q-11 0 -17 8t-3 20l63 236q-38 -46 -91 -79.5t-121 -33.5q-44 0 -81.5 16t-65 44.5t-43 68t-15.5 86.5q0 68 23.5 126.5t63.5 101.5t92 67.5t109 24.5z
M344 476q-52 0 -95.5 -22t-75 -59t-49 -85.5t-17.5 -101.5q0 -39 11.5 -71.5t32.5 -55.5t50 -35.5t64 -12.5q48 0 93.5 22.5t81.5 59.5t58 85t22 99q0 37 -12.5 69t-36 56t-56 38t-71.5 14z" />
    <glyph glyph-name="r" unicode="r" horiz-adv-x="396" 
d="M172 365q23 35 51.5 63t59 48t62 31t60.5 11q26 0 26 -25q0 -27 -36 -30q-41 -4 -81.5 -22t-76 -50t-63.5 -77.5t-44 -104.5l-51 -190q-6 -23 -27 -23q-11 0 -17 8t-3 20l124 467q6 23 27 23q11 0 17 -8t3 -20z" />
    <glyph glyph-name="s" unicode="s" horiz-adv-x="495" 
d="M223 34q24 0 48 7t42.5 20.5t30 32t11.5 41.5q0 15 -5 28t-17.5 25t-34 24t-54.5 24q-73 27 -108 56.5t-35 80.5q0 30 13.5 57t38 47.5t59.5 32t78 11.5q24 0 48 -5t46 -12.5t40.5 -17t31.5 -19.5t13 -23q0 -10 -6.5 -16.5t-16.5 -6.5q-5 0 -9.5 1.5t-6.5 3.5
q-32 23 -68 36.5t-77 13.5q-32 0 -57 -8t-41.5 -21.5t-25 -30.5t-8.5 -35q0 -15 4.5 -27t17.5 -23.5t35 -23.5t58 -26q77 -30 108 -61t31 -77q0 -33 -15 -61.5t-41 -49t-60.5 -32t-73.5 -11.5q-54 0 -104 17.5t-95 54.5q-12 10 -12 23q0 10 6.5 17t16.5 7q9 0 22 -10
q40 -33 82.5 -48.5t89.5 -15.5z" />
    <glyph glyph-name="t" unicode="t" horiz-adv-x="396" 
d="M228 654q6 23 27 23q11 0 17 -8t3 -20l-37 -139h150q10 0 16.5 -6.5t6.5 -16.5q0 -9 -7 -15.5t-16 -6.5h-162l-87 -325q-2 -10 -3.5 -22t-1.5 -21q0 -32 22.5 -46.5t60.5 -14.5q22 0 41 6q15 5 23 -1t8 -17q0 -15 -20 -23q-13 -5 -28.5 -7.5t-34.5 -2.5q-51 0 -86.5 24.5
t-35.5 76.5q0 12 2 25.5t4 23.5l87 324h-48q-10 0 -16.5 6.5t-6.5 16.5q0 9 7 15.5t16 6.5h60z" />
    <glyph glyph-name="u" unicode="u" horiz-adv-x="609" 
d="M426 -4q-11 0 -17 8t-3 20l18 71q-37 -45 -82.5 -76t-110.5 -31q-76 0 -121.5 44t-45.5 118q0 17 3 35.5t8 36.5l71 269q6 23 27 23q11 0 17 -8t3 -20l-71 -268q-4 -14 -6 -31.5t-2 -31.5q0 -57 35 -90t96 -33q33 0 66 14t62 39.5t51.5 60t33.5 76.5l72 269q6 23 27 23
q11 0 17 -8t3 -20l-124 -467q-6 -23 -27 -23z" />
    <glyph glyph-name="v" unicode="v" horiz-adv-x="557" 
d="M234 14q-6 -8 -13.5 -14.5t-17.5 -6.5h-2q-10 0 -16.5 6.5t-8.5 14.5l-80 456q-1 4 -1.5 10t-0.5 9q0 11 7 18t18 7q12 0 18 -7.5t8 -18.5l68 -433l302 439q5 8 11.5 14t16.5 6q11 0 16.5 -6.5t5.5 -14.5q0 -11 -7 -21z" />
    <glyph glyph-name="w" unicode="w" horiz-adv-x="845" 
d="M102 473q0 2 -0.5 6.5t-0.5 7.5q0 11 6.5 19t19.5 8q22 0 24 -27l35 -421l263 430q12 18 28 18h1q11 0 16 -6.5t6 -15.5l33 -426l266 429q5 8 11 13.5t15 5.5q21 0 21 -20q0 -5 -2 -10t-4 -9l-292 -462q-12 -20 -29 -20h-1q-23 0 -26 28l-33 412l-259 -419
q-12 -21 -29 -21h-1q-10 0 -16.5 7.5t-7.5 20.5z" />
    <glyph glyph-name="x" unicode="x" horiz-adv-x="559" 
d="M288 295l211 203q6 6 12.5 11t15.5 5t15 -6t6 -15q0 -11 -12 -22l-226 -211l119 -220q7 -14 7 -22q0 -9 -6.5 -15.5t-17.5 -6.5q-9 0 -14.5 5t-9.5 13l-111 215l-227 -217q-6 -6 -12.5 -11t-15.5 -5t-15 6t-6 15q0 12 12 22l242 225l-113 206q-7 14 -7 22q0 9 6.5 15.5
t17.5 6.5q9 0 14.5 -5t9.5 -13z" />
    <glyph glyph-name="y" unicode="y" horiz-adv-x="568" 
d="M-46 -98q40 -19 72 -19q39 0 77.5 26t85.5 94l-96 468q-2 10 -2 18q0 11 6.5 18t17.5 7t17.5 -7.5t8.5 -18.5l85 -434l296 440q13 20 29 20q11 0 16.5 -6t5.5 -15q0 -10 -6 -19l-338 -492q-55 -80 -104.5 -112.5t-104.5 -32.5q-25 0 -47.5 6.5t-43.5 17.5q-14 7 -14 22
q0 10 6.5 16.5t16.5 6.5q8 0 16 -4z" />
    <glyph glyph-name="z" unicode="z" horiz-adv-x="546" 
d="M527 510q21 0 21 -18v-1q0 -10 -10 -20l-463 -427h336q9 0 15.5 -6.5t6.5 -15.5t-6.5 -15.5t-15.5 -6.5h-397q-21 0 -21 18v1q0 10 10 20l463 427h-319q-9 0 -15.5 6.5t-6.5 15.5t6.5 15.5t15.5 6.5h380z" />
    <glyph glyph-name="braceleft" unicode="{" horiz-adv-x="480" 
d="M101 306q39 0 66.5 10t47 32t32.5 57t23 85t27 89t46 67t73.5 45t108.5 23q22 2 22 -18q0 -17 -20 -19q-52 -4 -88 -18.5t-60 -38.5t-38.5 -57.5t-22.5 -77.5q-10 -52 -23 -88t-31 -59t-42.5 -35t-56.5 -18q69 -21 69 -83q0 -11 -2 -26.5t-7 -30.5q-8 -26 -15 -57.5
t-7 -57.5q0 -50 25 -83t82 -52q16 -6 16 -17q0 -8 -6.5 -14t-19.5 -2q-78 20 -112 64t-34 100q0 13 1 24.5t4 25t7.5 30.5l10.5 40q9 32 9 55q0 32 -21.5 49.5t-73.5 17.5h-2q-24 0 -24 19t24 19h12z" />
    <glyph glyph-name="bar" unicode="|" horiz-adv-x="286" 
d="M141 780q0 9 6.5 15.5t15.5 6.5t15.5 -6.5t6.5 -15.5v-890q0 -9 -6.5 -15.5t-15.5 -6.5t-15.5 6.5t-6.5 15.5v890z" />
    <glyph glyph-name="braceright" unicode="}" horiz-adv-x="480" 
d="M396 268q-39 0 -66.5 -10t-47 -32t-32.5 -57t-23 -85q-10 -49 -26.5 -88.5t-46 -67.5t-73.5 -45t-109 -23q-22 -2 -22 18q0 17 20 19q52 4 88 18.5t60 38.5t38.5 58t22.5 77q10 53 23 88.5t31 58.5t42.5 35t56.5 18q-69 21 -69 83q0 11 2 26.5t7 30.5q8 26 15 57.5
t7 57.5q0 50 -25 83t-82 52q-16 6 -16 17q0 8 6.5 14t19.5 2q78 -20 112 -64t34 -100q0 -13 -1 -24.5t-4 -25t-7.5 -30.5l-10.5 -40q-9 -31 -9 -55q0 -32 21.5 -49.5t73.5 -17.5h2q24 0 24 -19t-24 -19h-12z" />
    <glyph glyph-name="asciitilde" unicode="~" horiz-adv-x="460" 
d="M112 242q-8 0 -14.5 4.5t-6.5 13.5q0 10 7 21q17 30 38 52.5t55 22.5q23 0 36.5 -9.5t30.5 -25.5t26 -23t22 -7q14 0 25.5 11.5t26.5 36.5q3 5 7.5 10t12.5 5t14.5 -4.5t6.5 -13.5q0 -10 -7 -21q-17 -30 -38 -52.5t-55 -22.5q-23 0 -36.5 9.5t-30.5 25.5t-26 23t-22 7
q-14 0 -25.5 -11.5t-26.5 -36.5q-3 -5 -7.5 -10t-12.5 -5z" />
    <glyph glyph-name="exclamdown" unicode="&#xa1;" horiz-adv-x="251" 
d="M179 507q4 13 15 13q17 0 12 -20l-114 -481q-5 -22 -29 -22h-8q-12 0 -18.5 7t-2.5 21zM261 637q-8 -26 -36 -26q-14 0 -22.5 9t-5.5 22l10 38q3 12 12.5 18t23.5 6t22.5 -8.5t5.5 -21.5z" />
    <glyph glyph-name="cent" unicode="&#xa2;" horiz-adv-x="558" 
d="M499 163q-35 -31 -85.5 -53.5t-117.5 -22.5q-22 0 -47 5l-31 -78q-10 -24 -28 -24q-13 0 -18.5 10t-0.5 21l33 84q-59 25 -94 77.5t-35 120.5q0 65 24 122.5t65.5 101t97 69t118.5 25.5h13.5t13.5 -1l26 66q5 11 10.5 17.5t16.5 6.5q13 0 19 -9t1 -22l-27 -67
q38 -9 70.5 -33t53.5 -59l4 -8t2 -9q0 -11 -7 -17.5t-16 -6.5q-14 0 -22 12q-20 29 -42 48t-63 30l-170 -433q17 -3 36 -3q50 0 90 16t79 48q8 6 17 6q10 0 16 -7t6 -16q0 -6 -2.5 -10t-5.5 -7zM128 304q0 -54 25 -95t70 -61l168 427h-14q-52 0 -97 -21.5t-79 -58.5
t-53.5 -86.5t-19.5 -104.5z" />
    <glyph glyph-name="sterling" unicode="&#xa3;" horiz-adv-x="624" 
d="M454 660q-71 0 -121 -50q-46 -46 -70 -135l-33 -122h271q10 0 17 -7t7 -17t-7 -17t-17 -7h-284l-69 -258h347q10 0 17 -7t7 -17t-7 -16.5t-17 -6.5h-484q-13 0 -13 13q0 11 12 14l86 18l70 260h-59q-10 0 -17 7t-7 17t7 17t17 7h72l35 131q13 48 33.5 88.5t46.5 66.5
q33 33 72.5 50.5t90.5 17.5q59 0 99.5 -22t70.5 -62l6.5 -10.5t3.5 -12.5q0 -11 -7 -18.5t-18 -7.5q-14 0 -21 11q-25 35 -55.5 55t-81.5 20z" />
    <glyph glyph-name="currency" unicode="&#xa4;" horiz-adv-x="684" 
d="M497 464q10 0 17 -7t7 -17t-7 -17t-17 -7h-292q-9 -29 -14.5 -60t-7.5 -63h269q10 0 17 -7t7 -17t-7 -17t-17 -7h-269q2 -46 16 -84.5t38 -66.5t58.5 -43.5t77.5 -15.5q59 0 103.5 21.5t87.5 65.5q4 4 9 7t13 3t14.5 -6t6.5 -14t-3.5 -13.5t-8.5 -10.5
q-43 -43 -94.5 -71.5t-128.5 -28.5q-51 0 -94 17.5t-75.5 51t-51.5 81t-22 107.5h-65q-10 0 -17 7t-7 17t7 17t17 7h66q3 65 21 123h-42q-10 0 -17 7t-7 17t7 17t17 7h59q21 53 53.5 98.5t74.5 78.5t91.5 52t105.5 19q79 0 131 -38t79 -98q5 -12 5 -20q0 -11 -7 -17.5
t-18 -6.5q-15 0 -22 16q-10 23 -25 44.5t-36 37.5t-49.5 25.5t-66.5 9.5q-42 0 -81 -15t-72.5 -41.5t-60.5 -63.5t-47 -81h274z" />
    <glyph glyph-name="yen" unicode="&#xa5;" horiz-adv-x="700" 
d="M718 690q6 6 12 10t15 4t15.5 -6t6.5 -16q0 -7 -3 -12t-8 -11l-340 -346h159q9 0 16 -7t7 -16t-7 -15.5t-16 -6.5h-201l-26 -98h189q9 0 16 -6.5t7 -16.5q0 -9 -7 -15.5t-16 -6.5h-201l-28 -106q-6 -23 -28 -23q-11 0 -18.5 8t-3.5 22l26 99h-185q-9 0 -16 6.5t-7 15.5
q0 10 7 16.5t16 6.5h197l26 98h-185q-9 0 -16 6.5t-7 15.5t7 16t16 7h177l-153 349q-4 9 -4 18q0 10 7 17t18 7q19 0 29 -23l153 -357z" />
    <glyph glyph-name="brokenbar" unicode="&#xa6;" 
d="M25 800h450v-1000h-450v1000z" />
    <glyph glyph-name="section" unicode="&#xa7;" horiz-adv-x="632" 
d="M392 245q32 0 58.5 7t46 19.5t30.5 28.5t11 34q0 29 -30.5 52t-102.5 48q-31 11 -56.5 16t-60.5 5q-31 0 -58 -7t-46.5 -19.5t-30.5 -28.5t-11 -34q0 -29 30.5 -52t102.5 -48q30 -11 56 -16t61 -5zM295 35q51 0 86.5 21.5t35.5 56.5q0 32 -33.5 54.5t-105.5 48.5
q-94 33 -141 65t-47 81q0 29 15 53t42 40.5t63 25.5t78 9q-31 14 -54 38t-23 58q0 29 14.5 52t39 39t57.5 24.5t70 8.5q61 0 116 -21t90 -48q12 -9 12 -22q0 -11 -6.5 -18.5t-17.5 -7.5q-6 0 -10.5 2.5t-8.5 5.5q-34 27 -79.5 45.5t-102.5 18.5q-51 0 -86.5 -21.5
t-35.5 -56.5q0 -32 33.5 -54.5t105.5 -48.5q94 -33 141 -65t47 -81q0 -29 -15 -53t-42 -40.5t-63 -25.5t-78 -9q31 -14 54 -38t23 -58q0 -29 -14.5 -52t-39 -39t-57.5 -24.5t-70 -8.5q-68 0 -121.5 22.5t-85.5 46.5q-12 9 -12 22q0 11 6.5 18.5t17.5 7.5q6 0 10.5 -2.5
t8.5 -5.5q32 -26 79 -45t104 -19z" />
    <glyph glyph-name="dieresis" unicode="&#xa8;" 
d="M287 616q-8 -27 -37 -27q-15 0 -23.5 9.5t-5.5 23.5l9 33q8 27 37 27q15 0 24 -9.5t5 -23.5zM450 616q-8 -27 -37 -27q-15 0 -23.5 9.5t-5.5 23.5l9 33q8 27 37 27q15 0 24 -9.5t5 -23.5z" />
    <glyph glyph-name="copyright" unicode="&#xa9;" horiz-adv-x="830" 
d="M439 -12q-76 0 -142 28.5t-114.5 77.5t-76.5 115t-28 140t28 140t77 115.5t115.5 78.5t142.5 29t142 -28.5t114.5 -77.5t76.5 -115t28 -140t-28 -140t-77 -115.5t-115.5 -78.5t-142.5 -29zM439 16q71 0 132 26.5t105.5 72t70 106.5t25.5 130t-25 129.5t-69.5 106
t-105 71.5t-131.5 26t-132 -26.5t-105.5 -72t-70 -106.5t-25.5 -130t25 -129.5t69.5 -106t105 -71.5t131.5 -26zM444 166q-39 0 -72 15t-57.5 40.5t-38.5 59.5t-14 73v2q0 38 14 72.5t39 60.5t58 41t72 15q45 0 74.5 -14t54.5 -36q9 -7 9 -18q0 -9 -6.5 -15t-15.5 -6
q-7 0 -16 7q-20 17 -44.5 29.5t-56.5 12.5q-30 0 -55 -11.5t-43.5 -32t-29 -47.5t-10.5 -57v-2q0 -30 11 -57.5t29.5 -47.5t44 -32t54.5 -12q34 0 57.5 11t47.5 32q8 6 15 6q19 0 19 -19q0 -9 -8 -17q-25 -23 -56 -38t-76 -15z" />
    <glyph glyph-name="ordfeminine" unicode="&#xaa;" horiz-adv-x="390" 
d="M201 442q19 0 38.5 7.5t36.5 20t29.5 29t17.5 35.5l4 14q-19 5 -41.5 8.5t-48.5 3.5q-39 0 -64 -19.5t-25 -51.5q0 -21 14.5 -34t38.5 -13zM262 667q-33 0 -62 -9q-2 -1 -7 -2t-8 -1q-16 0 -16 18q0 13 15 17q17 6 39 10t46 4q54 0 82.5 -23.5t28.5 -64.5q0 -9 -2 -19
l-4 -20l-39 -146q-5 -19 -22 -19q-22 0 -17 22l9 32q-22 -24 -50 -40t-64 -16q-35 0 -60 20t-25 55q0 48 37 77t94 29q26 0 51.5 -5t45.5 -10l2 6q2 5 3 13t1 14q0 58 -78 58zM78 293q-8 0 -14 6t-6 14t6 14t14 6h214q8 0 14 -6t6 -14t-6 -14t-14 -6h-214z" />
    <glyph glyph-name="guillemotleft" unicode="&#xab;" horiz-adv-x="515" 
d="M245 450q6 6 12.5 11t14.5 5q21 0 21 -22q0 -10 -9 -19l-177 -177l75 -166q4 -9 4 -17q0 -9 -6.5 -15.5t-16.5 -6.5q-15 0 -23 17l-88 177q-5 10 -5 15q0 7 7 14zM449 450q6 6 12.5 11t14.5 5q21 0 21 -22q0 -10 -9 -19l-177 -177l75 -166q4 -9 4 -17q0 -9 -6.5 -15.5
t-16.5 -6.5q-15 0 -23 17l-88 177q-5 10 -5 15q0 7 7 14z" />
    <glyph glyph-name="logicalnot" unicode="&#xac;" 
d="M25 800h450v-1000h-450v1000z" />
    <glyph glyph-name="registered" unicode="&#xae;" horiz-adv-x="416" 
d="M283 360q-37 0 -68.5 14t-55 37.5t-37 55t-13.5 67.5v1q0 36 13.5 67.5t37 55.5t55.5 38t68 14q37 0 68.5 -14t55 -37.5t37 -55t13.5 -67.5v-1q0 -36 -13.5 -67.5t-37 -55.5t-55.5 -38t-68 -14zM283 379q33 0 61 12.5t48.5 33.5t32.5 49.5t12 60.5v1q0 32 -11.5 60
t-32.5 49t-49 33.5t-61 12.5t-61 -12.5t-48.5 -33.5t-32.5 -49.5t-12 -60.5v-1q0 -32 11.5 -60t32.5 -49t49 -33.5t61 -12.5zM218 612q0 14 14 14h64q27 0 46 -14t19 -40q0 -20 -11.5 -34t-30.5 -20l38 -45q5 -6 5 -12q0 -13 -13 -13q-8 0 -14 8l-49 59h-40v-53
q0 -14 -14 -14t-14 14v150zM293 538q19 0 29 9t10 23q0 16 -10.5 23.5t-28.5 7.5h-47v-63h47z" />
    <glyph glyph-name="macron" unicode="&#xaf;" 
d="M223 621q-10 0 -17 7t-7 17t7 17t17 7h264q10 0 17 -7t7 -17t-7 -17t-17 -7h-264z" />
    <glyph glyph-name="degree" unicode="&#xb0;" horiz-adv-x="366" 
d="M214 411q-56 0 -91 36t-35 90q0 33 13.5 63.5t36 54t52.5 37t64 13.5q56 0 91 -36t35 -90q0 -33 -13.5 -63.5t-36 -54t-52.5 -37t-64 -13.5zM219 453q23 0 44 10t37 26.5t25.5 38.5t9.5 46q0 42 -24 65.5t-62 23.5q-23 0 -44 -10t-37 -26.5t-25.5 -38.5t-9.5 -46
q0 -42 24 -65.5t62 -23.5z" />
    <glyph glyph-name="plusminus" unicode="&#xb1;" horiz-adv-x="600" 
d="M61 128q32 -43 79.5 -68t122.5 -25q45 0 82 12t64 33t41.5 49t14.5 60q0 37 -17 63.5t-46.5 44t-68.5 25.5t-84 8h-5q-10 0 -16.5 6.5t-6.5 16.5t6.5 16.5t16.5 6.5h27q125 0 195 42t70 116q0 30 -12.5 54t-34.5 40.5t-52 25.5t-65 9q-61 0 -102 -17.5t-73 -40.5
q-5 -4 -9.5 -6.5t-12.5 -2.5q-10 0 -16 6.5t-6 16.5q0 13 14 23q36 26 85.5 47t119.5 21q44 0 83.5 -11.5t69.5 -33.5t48 -54t18 -74q0 -79 -57 -125.5t-154 -62.5q28 -8 53.5 -21.5t44.5 -33t30.5 -45t11.5 -58.5q0 -43 -20 -80t-55.5 -64.5t-83 -43t-101.5 -15.5
q-83 0 -143 29t-98 79q-8 10 -8 20q0 11 7 18t18 7q15 0 25 -13z" />
    <glyph glyph-name="twosuperior" unicode="&#xb2;" 
d="M25 800h450v-1000h-450v1000z" />
    <glyph glyph-name="threesuperior" unicode="&#xb3;" 
d="M25 800h450v-1000h-450v1000z" />
    <glyph glyph-name="acute" unicode="&#xb4;" 
d="M315 605q-10 -8 -19 -10.5t-19 -2.5q-14 0 -14 10q0 6 5 11l88 95q8 8 14 12.5t15 4.5q14 0 29 -8.5t15 -16.5q0 -9 -11 -17z" />
    <glyph glyph-name="mu" unicode="&#xb5;" horiz-adv-x="846" 
d="M623 126q58 54 91 129t33 156q0 54 -18 100t-50.5 80.5t-78 54t-101.5 19.5q-74 0 -137.5 -32t-110.5 -84.5t-74 -120.5t-27 -140q0 -54 18 -100t50.5 -80.5t78 -54t101.5 -19.5q54 0 101.5 17t88.5 46l-98 109l-9 11t-4 13q0 25 24 25q12 0 22 -12zM620 61
q-48 -35 -104 -54.5t-118 -19.5q-66 0 -121.5 23.5t-95.5 64t-62.5 95.5t-22.5 118q0 82 31.5 158.5t86.5 135.5t128 94.5t157 35.5q66 0 121.5 -23.5t95.5 -64t62.5 -95.5t22.5 -118q0 -92 -39.5 -176.5t-106.5 -144.5l57 -62l8.5 -10.5t3.5 -12.5q0 -10 -6.5 -16.5
t-17.5 -6.5q-13 0 -23 12z" />
    <glyph glyph-name="paragraph" unicode="&#xb6;" horiz-adv-x="486" 
d="M318 19q-6 -23 -29 -23q-11 0 -18.5 8t-3.5 22l63 237q-46 3 -87.5 14t-72.5 33t-49.5 55.5t-18.5 80.5q0 60 22.5 107t64.5 79.5t102.5 50t136.5 17.5h43q13 0 19.5 -8t2.5 -22z" />
    <glyph glyph-name="periodcentered" unicode="&#xb7;" horiz-adv-x="231" 
d="M153 275q-3 -12 -12.5 -18t-23.5 -6t-22.5 8.5t-5.5 21.5l10 37q8 26 36 26q14 0 22.5 -9t5.5 -22z" />
    <glyph glyph-name="cedilla" unicode="&#xb8;" 
d="M131 -131q-3 -4 -8 -8t-13 -4q-12 0 -19.5 7.5t-7.5 15.5q0 11 10 22l102 108h43z" />
    <glyph glyph-name="onesuperior" unicode="&#xb9;" 
d="M25 800h450v-1000h-450v1000z" />
    <glyph glyph-name="ordmasculine" unicode="&#xba;" horiz-adv-x="390" 
d="M245 407q-59 0 -94.5 36.5t-35.5 92.5q0 33 13 64t36 54t53.5 37t64.5 14q58 0 94 -36.5t36 -92.5q0 -33 -13 -64t-36 -54t-53 -37t-65 -14zM248 444q25 0 47 11t38.5 29t26 41.5t9.5 48.5q0 43 -25 68.5t-65 25.5q-25 0 -47.5 -10.5t-39 -28.5t-26 -41.5t-9.5 -49.5
q0 -43 25.5 -68.5t65.5 -25.5zM80 293q-8 0 -14 6t-6 14t6 14t14 6h238q8 0 14 -6t6 -14t-6 -14t-14 -6h-238z" />
    <glyph glyph-name="guillemotright" unicode="&#xbb;" horiz-adv-x="515" 
d="M269 59q-6 -6 -12.5 -11t-14.5 -5q-21 0 -21 22q0 10 9 19l177 177l-75 166q-4 9 -4 17q0 9 6.5 15.5t16.5 6.5q15 0 23 -17l88 -177q5 -10 5 -15q0 -7 -7 -14zM65 59q-6 -6 -12.5 -11t-14.5 -5q-21 0 -21 22q0 10 9 19l177 177l-75 166q-4 9 -4 17q0 9 6.5 15.5
t16.5 6.5q15 0 23 -17l88 -177q5 -10 5 -15q0 -7 -7 -14z" />
    <glyph glyph-name="onequarter" unicode="&#xbc;" 
d="M25 800h450v-1000h-450v1000z" />
    <glyph glyph-name="onehalf" unicode="&#xbd;" 
d="M25 800h450v-1000h-450v1000z" />
    <glyph glyph-name="threequarters" unicode="&#xbe;" 
d="M25 800h450v-1000h-450v1000z" />
    <glyph glyph-name="questiondown" unicode="&#xbf;" horiz-adv-x="534" 
d="M441 115q5 4 10 7t11 3q10 0 16.5 -6.5t6.5 -15.5q0 -10 -8 -18q-18 -17 -40.5 -33.5t-51 -30t-61.5 -22t-72 -8.5q-46 0 -83.5 13t-63.5 36.5t-40 55.5t-14 70q0 50 21.5 88.5t58 66.5t84.5 46t101 25l39 114q5 15 17 15h1q8 0 12.5 -5.5t2.5 -16.5l-24 -126
q-3 -21 -24 -24q-51 -5 -94.5 -19.5t-75 -37.5t-49 -54.5t-17.5 -70.5q0 -31 12 -55.5t32.5 -40.5t48.5 -24.5t59 -8.5q57 0 103.5 23t81.5 54zM440 637q-8 -26 -36 -26q-14 0 -22.5 9t-5.5 22l10 38q3 12 12.5 18t23.5 6t22.5 -8.5t5.5 -21.5z" />
    <glyph glyph-name="Agrave" unicode="&#xc0;" horiz-adv-x="741" 
d="M569 243l-75 405l-294 -405h369zM661 36q2 -8 2 -16q0 -9 -7 -16.5t-18 -7.5q-22 0 -27 25l-32 175h-413l-131 -181q-6 -8 -12.5 -13.5t-15.5 -5.5q-8 0 -15 6t-7 17q0 9 6 15l473 648q8 10 16.5 17.5t22.5 7.5h2q14 0 21.5 -7t9.5 -18zM430 864q-7 8 -7 16t12.5 15.5
t26.5 7.5q9 0 16.5 -4t11.5 -14l36 -92q1 -2 2 -5t1 -7q0 -9 -13 -9q-10 0 -15 3t-10 9z" />
    <glyph glyph-name="Aacute" unicode="&#xc1;" horiz-adv-x="741" 
d="M569 243l-75 405l-294 -405h369zM661 36q2 -8 2 -16q0 -9 -7 -16.5t-18 -7.5q-22 0 -27 25l-32 175h-413l-131 -181q-6 -8 -12.5 -13.5t-15.5 -5.5q-8 0 -15 6t-7 17q0 9 6 15l473 648q8 10 16.5 17.5t22.5 7.5h2q14 0 21.5 -7t9.5 -18zM561 785q-10 -8 -19 -10.5
t-19 -2.5q-14 0 -14 10q0 6 5 11l88 95q8 8 14 12.5t15 4.5q14 0 29 -8.5t15 -16.5q0 -9 -11 -17z" />
    <glyph glyph-name="Acircumflex" unicode="&#xc2;" horiz-adv-x="741" 
d="M569 243l-75 405l-294 -405h369zM661 36q2 -8 2 -16q0 -9 -7 -16.5t-18 -7.5q-22 0 -27 25l-32 175h-413l-131 -181q-6 -8 -12.5 -13.5t-15.5 -5.5q-8 0 -15 6t-7 17q0 9 6 15l473 648q8 10 16.5 17.5t22.5 7.5h2q14 0 21.5 -7t9.5 -18zM631 795q2 -5 3.5 -7.5t1.5 -5.5
q0 -10 -14 -10q-10 0 -17 2t-15 12l-44 57l-82 -58q-10 -7 -16.5 -10t-16.5 -3q-14 0 -14 10q0 6 8 14l94 86q8 8 16 13t17 5h6q9 0 14.5 -4.5t10.5 -13.5z" />
    <glyph glyph-name="Atilde" unicode="&#xc3;" horiz-adv-x="741" 
d="M569 243l-75 405l-294 -405h369zM661 36q2 -8 2 -16q0 -9 -7 -16.5t-18 -7.5q-22 0 -27 25l-32 175h-413l-131 -181q-6 -8 -12.5 -13.5t-15.5 -5.5q-8 0 -15 6t-7 17q0 9 6 15l473 648q8 10 16.5 17.5t22.5 7.5h2q14 0 21.5 -7t9.5 -18zM407 770q-8 0 -14.5 4.5
t-6.5 13.5q0 10 7 21q17 30 38 52.5t55 22.5q23 0 36.5 -9.5t30.5 -25.5t26 -23t22 -7q14 0 25.5 11.5t26.5 36.5q3 5 7.5 10t12.5 5t14.5 -4.5t6.5 -13.5q0 -10 -7 -21q-17 -30 -38 -52.5t-55 -22.5q-23 0 -36.5 9.5t-30.5 25.5t-26 23t-22 7q-14 0 -25.5 -11.5
t-26.5 -36.5q-3 -5 -7.5 -10t-12.5 -5z" />
    <glyph glyph-name="Adieresis" unicode="&#xc4;" horiz-adv-x="741" 
d="M569 243l-75 405l-294 -405h369zM661 36q2 -8 2 -16q0 -9 -7 -16.5t-18 -7.5q-22 0 -27 25l-32 175h-413l-131 -181q-6 -8 -12.5 -13.5t-15.5 -5.5q-8 0 -15 6t-7 17q0 9 6 15l473 648q8 10 16.5 17.5t22.5 7.5h2q14 0 21.5 -7t9.5 -18zM483 796q-8 -27 -37 -27
q-15 0 -23.5 9.5t-5.5 23.5l9 33q8 27 37 27q15 0 24 -9.5t5 -23.5zM646 796q-8 -27 -37 -27q-15 0 -23.5 9.5t-5.5 23.5l9 33q8 27 37 27q15 0 24 -9.5t5 -23.5z" />
    <glyph glyph-name="Aring" unicode="&#xc5;" horiz-adv-x="741" 
d="M7 -4q-8 0 -15 6t-7 17q0 9 6 15l473 647q-46 22 -46 71q0 21 8.5 40t23 32.5t34 21.5t40.5 8q43 0 69.5 -23.5t26.5 -58.5q0 -37 -24 -64.5t-59 -35.5l124 -636q2 -8 2 -16q0 -9 -7 -16.5t-18 -7.5q-22 0 -27 25l-32 175h-413l-131 -181q-6 -8 -12.5 -13.5t-15.5 -5.5z
M569 243l-75 405l-294 -405h369zM514 702q29 0 49.5 20.5t20.5 49.5q0 22 -15.5 36t-44.5 14t-49.5 -20.5t-20.5 -49.5q0 -22 15.5 -36t44.5 -14z" />
    <glyph glyph-name="AE" unicode="&#xc6;" horiz-adv-x="1068" 
d="M514 243l110 410h-27l-355 -410h272zM1093 700q10 0 17 -7t7 -17t-7 -17t-17 -7h-417l-74 -275h359q10 0 17 -7t7 -17t-7 -17t-17 -7h-372l-75 -281h409q10 0 17 -7t7 -17t-7 -17t-17 -7h-445q-11 0 -18 7.5t-4 18.5l46 170h-301l-156 -180q-8 -10 -15.5 -15t-16.5 -5
t-15 5.5t-6 15.5q0 11 9 21l556 637q8 9 17 17t23 8h496z" />
    <glyph glyph-name="Ccedilla" unicode="&#xc7;" horiz-adv-x="738" 
d="M639 92q-24 -22 -50.5 -41t-58 -33.5t-69 -22.5t-83.5 -8h-5l-89 -118q-3 -4 -8 -8t-13 -4q-12 0 -19.5 7.5t-7.5 15.5q0 11 10 22l83 89q-50 7 -93 29.5t-75 58.5t-50.5 84.5t-18.5 107.5q0 85 33 164.5t89.5 141t132.5 98.5t163 37q85 0 147 -35.5t95 -89.5q3 -5 5 -10
t2 -12q-1 -10 -8 -17t-18 -6q-5 0 -11 2.5t-10 8.5q-15 24 -33.5 44.5t-43 35.5t-56 23.5t-72.5 8.5q-76 0 -141.5 -33.5t-114.5 -88.5t-77 -125.5t-28 -144.5q0 -55 18 -99t49.5 -75t75 -47.5t94.5 -16.5q72 0 124 24t99 68q3 3 8 6t11 3q10 0 17 -7t7 -17q0 -6 -3.5 -11.5
t-6.5 -8.5z" />
    <glyph glyph-name="Egrave" unicode="&#xc8;" horiz-adv-x="649" 
d="M65 0q-11 0 -18 7.5t-4 18.5l174 648q3 11 11 18.5t19 7.5h443q10 0 17 -7t7 -17t-7 -17t-17 -7h-427l-74 -275h369q10 0 17 -7t7 -17t-7 -17t-17 -7h-382l-75 -281h419q10 0 17 -7t7 -17t-7 -17t-17 -7h-455zM386 854q-7 8 -7 16t12.5 15.5t26.5 7.5q9 0 16.5 -4
t11.5 -14l36 -92q1 -2 2 -5t1 -7q0 -9 -13 -9q-10 0 -15 3t-10 9z" />
    <glyph glyph-name="Eacute" unicode="&#xc9;" horiz-adv-x="649" 
d="M65 0q-11 0 -18 7.5t-4 18.5l174 648q3 11 11 18.5t19 7.5h443q10 0 17 -7t7 -17t-7 -17t-17 -7h-427l-74 -275h369q10 0 17 -7t7 -17t-7 -17t-17 -7h-382l-75 -281h419q10 0 17 -7t7 -17t-7 -17t-17 -7h-455zM517 775q-10 -8 -19 -10.5t-19 -2.5q-14 0 -14 10q0 6 5 11
l88 95q8 8 14 12.5t15 4.5q14 0 29 -8.5t15 -16.5q0 -9 -11 -17z" />
    <glyph glyph-name="Ecircumflex" unicode="&#xca;" horiz-adv-x="649" 
d="M65 0q-11 0 -18 7.5t-4 18.5l174 648q3 11 11 18.5t19 7.5h443q10 0 17 -7t7 -17t-7 -17t-17 -7h-427l-74 -275h369q10 0 17 -7t7 -17t-7 -17t-17 -7h-382l-75 -281h419q10 0 17 -7t7 -17t-7 -17t-17 -7h-455zM587 785q2 -5 3.5 -7.5t1.5 -5.5q0 -10 -14 -10q-10 0 -17 2
t-15 12l-44 57l-82 -58q-10 -7 -16.5 -10t-16.5 -3q-14 0 -14 10q0 6 8 14l94 86q8 8 16 13t17 5h6q9 0 14.5 -4.5t10.5 -13.5z" />
    <glyph glyph-name="Edieresis" unicode="&#xcb;" horiz-adv-x="649" 
d="M65 0q-11 0 -18 7.5t-4 18.5l174 648q3 11 11 18.5t19 7.5h443q10 0 17 -7t7 -17t-7 -17t-17 -7h-427l-74 -275h369q10 0 17 -7t7 -17t-7 -17t-17 -7h-382l-75 -281h419q10 0 17 -7t7 -17t-7 -17t-17 -7h-455zM439 786q-8 -27 -37 -27q-15 0 -23.5 9.5t-5.5 23.5l9 33
q8 27 37 27q15 0 24 -9.5t5 -23.5zM602 786q-8 -27 -37 -27q-15 0 -23.5 9.5t-5.5 23.5l9 33q8 27 37 27q15 0 24 -9.5t5 -23.5z" />
    <glyph glyph-name="Igrave" unicode="&#xcc;" horiz-adv-x="274" 
d="M100 19q-6 -23 -28 -23q-11 0 -18.5 8t-3.5 22l176 655q6 23 28 23q11 0 18.5 -8t3.5 -22zM178 854q-7 8 -7 16t12.5 15.5t26.5 7.5q9 0 16.5 -4t11.5 -14l36 -92q1 -2 2 -5t1 -7q0 -9 -13 -9q-10 0 -15 3t-10 9z" />
    <glyph glyph-name="Iacute" unicode="&#xcd;" horiz-adv-x="274" 
d="M100 19q-6 -23 -28 -23q-11 0 -18.5 8t-3.5 22l176 655q6 23 28 23q11 0 18.5 -8t3.5 -22zM309 775q-10 -8 -19 -10.5t-19 -2.5q-14 0 -14 10q0 6 5 11l88 95q8 8 14 12.5t15 4.5q14 0 29 -8.5t15 -16.5q0 -9 -11 -17z" />
    <glyph glyph-name="Icircumflex" unicode="&#xce;" horiz-adv-x="274" 
d="M100 19q-6 -23 -28 -23q-11 0 -18.5 8t-3.5 22l176 655q6 23 28 23q11 0 18.5 -8t3.5 -22zM379 785q2 -5 3.5 -7.5t1.5 -5.5q0 -10 -14 -10q-10 0 -17 2t-15 12l-44 57l-82 -58q-10 -7 -16.5 -10t-16.5 -3q-14 0 -14 10q0 6 8 14l94 86q8 8 16 13t17 5h6q9 0 14.5 -4.5
t10.5 -13.5z" />
    <glyph glyph-name="Idieresis" unicode="&#xcf;" horiz-adv-x="274" 
d="M100 19q-6 -23 -28 -23q-11 0 -18.5 8t-3.5 22l176 655q6 23 28 23q11 0 18.5 -8t3.5 -22zM232 786q-8 -27 -37 -27q-15 0 -23.5 9.5t-5.5 23.5l9 33q8 27 37 27q15 0 24 -9.5t5 -23.5zM395 786q-8 -27 -37 -27q-15 0 -23.5 9.5t-5.5 23.5l9 33q8 27 37 27q15 0 24 -9.5
t5 -23.5z" />
    <glyph glyph-name="Eth" unicode="&#xd0;" horiz-adv-x="801" 
d="M411 700q82 0 153 -23t119 -71q37 -37 57 -86t20 -114q0 -81 -28 -149.5t-81 -121.5q-63 -63 -155 -99t-201 -36h-200q-11 0 -18 7.5t-4 18.5l81 302h-48q-10 0 -17 7t-7 17t7 17t17 7h61l80 298q3 11 11 18.5t19 7.5h134zM302 48q95 0 173.5 31t136.5 89
q45 45 69.5 104.5t24.5 129.5q0 108 -65 171q-39 39 -98.5 59t-134.5 20h-115l-74 -276h205q10 0 17 -7t7 -17t-7 -17t-17 -7h-218l-75 -280h171z" />
    <glyph glyph-name="Ntilde" unicode="&#xd1;" horiz-adv-x="786" 
d="M747 681q6 23 27 23q11 0 18 -8t3 -22l-176 -655q-6 -22 -24 -22h-1q-9 0 -15.5 6t-11.5 15l-313 608l-163 -607q-6 -23 -27 -23q-11 0 -18 8t-3 22l175 651q3 11 10.5 18.5t19.5 7.5h2q11 0 19.5 -7.5t14.5 -18.5l303 -590zM411 760q-8 0 -14.5 4.5t-6.5 13.5q0 10 7 21
q17 30 38 52.5t55 22.5q23 0 36.5 -9.5t30.5 -25.5t26 -23t22 -7q14 0 25.5 11.5t26.5 36.5q3 5 7.5 10t12.5 5t14.5 -4.5t6.5 -13.5q0 -10 -7 -21q-17 -30 -38 -52.5t-55 -22.5q-23 0 -36.5 9.5t-30.5 25.5t-26 23t-22 7q-14 0 -25.5 -11.5t-26.5 -36.5q-3 -5 -7.5 -10
t-12.5 -5z" />
    <glyph glyph-name="Ograve" unicode="&#xd2;" horiz-adv-x="846" 
d="M398 -13q-66 0 -121.5 23.5t-95.5 64t-62.5 95.5t-22.5 118q0 82 31.5 158.5t86.5 135.5t128 94.5t157 35.5q66 0 121.5 -23.5t95.5 -64t62.5 -95.5t22.5 -118q0 -82 -31.5 -158.5t-86.5 -135.5t-128 -94.5t-157 -35.5zM398 34q74 0 137.5 32t110.5 84.5t74 120.5t27 140
q0 54 -18 100t-50.5 80.5t-78 54t-101.5 19.5q-74 0 -137.5 -32t-110.5 -84.5t-74 -120.5t-27 -140q0 -54 18 -100t50.5 -80.5t78 -54t101.5 -19.5zM453 864q-7 8 -7 16t12.5 15.5t26.5 7.5q9 0 16.5 -4t11.5 -14l36 -92q1 -2 2 -5t1 -7q0 -9 -13 -9q-10 0 -15 3t-10 9z" />
    <glyph glyph-name="Oacute" unicode="&#xd3;" horiz-adv-x="846" 
d="M398 -13q-66 0 -121.5 23.5t-95.5 64t-62.5 95.5t-22.5 118q0 82 31.5 158.5t86.5 135.5t128 94.5t157 35.5q66 0 121.5 -23.5t95.5 -64t62.5 -95.5t22.5 -118q0 -82 -31.5 -158.5t-86.5 -135.5t-128 -94.5t-157 -35.5zM398 34q74 0 137.5 32t110.5 84.5t74 120.5t27 140
q0 54 -18 100t-50.5 80.5t-78 54t-101.5 19.5q-74 0 -137.5 -32t-110.5 -84.5t-74 -120.5t-27 -140q0 -54 18 -100t50.5 -80.5t78 -54t101.5 -19.5zM584 785q-10 -8 -19 -10.5t-19 -2.5q-14 0 -14 10q0 6 5 11l88 95q8 8 14 12.5t15 4.5q14 0 29 -8.5t15 -16.5q0 -9 -11 -17
z" />
    <glyph glyph-name="Ocircumflex" unicode="&#xd4;" horiz-adv-x="846" 
d="M398 -13q-66 0 -121.5 23.5t-95.5 64t-62.5 95.5t-22.5 118q0 82 31.5 158.5t86.5 135.5t128 94.5t157 35.5q66 0 121.5 -23.5t95.5 -64t62.5 -95.5t22.5 -118q0 -82 -31.5 -158.5t-86.5 -135.5t-128 -94.5t-157 -35.5zM398 34q74 0 137.5 32t110.5 84.5t74 120.5t27 140
q0 54 -18 100t-50.5 80.5t-78 54t-101.5 19.5q-74 0 -137.5 -32t-110.5 -84.5t-74 -120.5t-27 -140q0 -54 18 -100t50.5 -80.5t78 -54t101.5 -19.5zM653 795q2 -5 3.5 -7.5t1.5 -5.5q0 -10 -14 -10q-10 0 -17 2t-15 12l-44 57l-82 -58q-10 -7 -16.5 -10t-16.5 -3
q-14 0 -14 10q0 6 8 14l94 86q8 8 16 13t17 5h6q9 0 14.5 -4.5t10.5 -13.5z" />
    <glyph glyph-name="Otilde" unicode="&#xd5;" horiz-adv-x="846" 
d="M398 -13q-66 0 -121.5 23.5t-95.5 64t-62.5 95.5t-22.5 118q0 82 31.5 158.5t86.5 135.5t128 94.5t157 35.5q66 0 121.5 -23.5t95.5 -64t62.5 -95.5t22.5 -118q0 -82 -31.5 -158.5t-86.5 -135.5t-128 -94.5t-157 -35.5zM398 34q74 0 137.5 32t110.5 84.5t74 120.5t27 140
q0 54 -18 100t-50.5 80.5t-78 54t-101.5 19.5q-74 0 -137.5 -32t-110.5 -84.5t-74 -120.5t-27 -140q0 -54 18 -100t50.5 -80.5t78 -54t101.5 -19.5zM430 770q-8 0 -14.5 4.5t-6.5 13.5q0 10 7 21q17 30 38 52.5t55 22.5q23 0 36.5 -9.5t30.5 -25.5t26 -23t22 -7
q14 0 25.5 11.5t26.5 36.5q3 5 7.5 10t12.5 5t14.5 -4.5t6.5 -13.5q0 -10 -7 -21q-17 -30 -38 -52.5t-55 -22.5q-23 0 -36.5 9.5t-30.5 25.5t-26 23t-22 7q-14 0 -25.5 -11.5t-26.5 -36.5q-3 -5 -7.5 -10t-12.5 -5z" />
    <glyph glyph-name="Odieresis" unicode="&#xd6;" horiz-adv-x="846" 
d="M398 -13q-66 0 -121.5 23.5t-95.5 64t-62.5 95.5t-22.5 118q0 82 31.5 158.5t86.5 135.5t128 94.5t157 35.5q66 0 121.5 -23.5t95.5 -64t62.5 -95.5t22.5 -118q0 -82 -31.5 -158.5t-86.5 -135.5t-128 -94.5t-157 -35.5zM398 34q74 0 137.5 32t110.5 84.5t74 120.5t27 140
q0 54 -18 100t-50.5 80.5t-78 54t-101.5 19.5q-74 0 -137.5 -32t-110.5 -84.5t-74 -120.5t-27 -140q0 -54 18 -100t50.5 -80.5t78 -54t101.5 -19.5zM506 796q-8 -27 -37 -27q-15 0 -23.5 9.5t-5.5 23.5l9 33q8 27 37 27q15 0 24 -9.5t5 -23.5zM669 796q-8 -27 -37 -27
q-15 0 -23.5 9.5t-5.5 23.5l9 33q8 27 37 27q15 0 24 -9.5t5 -23.5z" />
    <glyph glyph-name="multiply" unicode="&#xd7;" horiz-adv-x="846" 
d="M623 126q58 54 91 129t33 156q0 54 -18 100t-50.5 80.5t-78 54t-101.5 19.5q-74 0 -137.5 -32t-110.5 -84.5t-74 -120.5t-27 -140q0 -54 18 -100t50.5 -80.5t78 -54t101.5 -19.5q54 0 101.5 17t88.5 46l-98 109l-9 11t-4 13q0 25 24 25q12 0 22 -12zM620 61
q-48 -35 -104 -54.5t-118 -19.5q-66 0 -121.5 23.5t-95.5 64t-62.5 95.5t-22.5 118q0 82 31.5 158.5t86.5 135.5t128 94.5t157 35.5q66 0 121.5 -23.5t95.5 -64t62.5 -95.5t22.5 -118q0 -92 -39.5 -176.5t-106.5 -144.5l57 -62l8.5 -10.5t3.5 -12.5q0 -10 -6.5 -16.5
t-17.5 -6.5q-13 0 -23 12z" />
    <glyph glyph-name="Oslash" unicode="&#xd8;" horiz-adv-x="846" 
d="M150 288q0 -72 30 -129l508 424q-33 38 -81 60t-108 22q-74 0 -137.5 -32t-110.5 -84.5t-74 -120.5t-27 -140zM398 34q74 0 137.5 32t110.5 84.5t74 120.5t27 140q0 76 -34 136l-509 -425q32 -42 81.5 -65t112.5 -23zM64 5q-5 -5 -13 -9.5t-17 -4.5q-19 0 -19 19
q0 12 11 21l114 95q-21 35 -32.5 76t-11.5 86q0 82 31.5 158.5t86.5 135.5t128 94.5t157 35.5q71 0 128.5 -26t98.5 -71l95 80q6 5 13.5 9.5t15.5 4.5q20 0 20 -18q0 -13 -11 -22l-106 -89q23 -36 35.5 -78.5t12.5 -90.5q0 -82 -31.5 -158.5t-86.5 -135.5t-128 -94.5
t-157 -35.5q-73 0 -132 27.5t-100 75.5z" />
    <glyph glyph-name="Ugrave" unicode="&#xd9;" horiz-adv-x="756" 
d="M670 283q-18 -67 -46 -118t-65 -88q-43 -43 -96.5 -65.5t-114.5 -22.5q-63 0 -110 17t-78.5 46.5t-47.5 69.5t-16 87q0 29 3.5 55.5t10.5 52.5l97 364q6 23 28 23q11 0 18.5 -8t3.5 -22l-101 -381q-4 -15 -6.5 -36t-2.5 -44q0 -37 12.5 -69.5t37.5 -56.5t64 -37.5
t91 -13.5q47 0 91 18t80 54q29 29 55 75.5t43 110.5l104 387q6 23 28 23q11 0 18.5 -8t3.5 -22zM408 854q-7 8 -7 16t12.5 15.5t26.5 7.5q9 0 16.5 -4t11.5 -14l36 -92q1 -2 2 -5t1 -7q0 -9 -13 -9q-10 0 -15 3t-10 9z" />
    <glyph glyph-name="Uacute" unicode="&#xda;" horiz-adv-x="756" 
d="M670 283q-18 -67 -46 -118t-65 -88q-43 -43 -96.5 -65.5t-114.5 -22.5q-63 0 -110 17t-78.5 46.5t-47.5 69.5t-16 87q0 29 3.5 55.5t10.5 52.5l97 364q6 23 28 23q11 0 18.5 -8t3.5 -22l-101 -381q-4 -15 -6.5 -36t-2.5 -44q0 -37 12.5 -69.5t37.5 -56.5t64 -37.5
t91 -13.5q47 0 91 18t80 54q29 29 55 75.5t43 110.5l104 387q6 23 28 23q11 0 18.5 -8t3.5 -22zM539 775q-10 -8 -19 -10.5t-19 -2.5q-14 0 -14 10q0 6 5 11l88 95q8 8 14 12.5t15 4.5q14 0 29 -8.5t15 -16.5q0 -9 -11 -17z" />
    <glyph glyph-name="Ucircumflex" unicode="&#xdb;" horiz-adv-x="756" 
d="M670 283q-18 -67 -46 -118t-65 -88q-43 -43 -96.5 -65.5t-114.5 -22.5q-63 0 -110 17t-78.5 46.5t-47.5 69.5t-16 87q0 29 3.5 55.5t10.5 52.5l97 364q6 23 28 23q11 0 18.5 -8t3.5 -22l-101 -381q-4 -15 -6.5 -36t-2.5 -44q0 -37 12.5 -69.5t37.5 -56.5t64 -37.5
t91 -13.5q47 0 91 18t80 54q29 29 55 75.5t43 110.5l104 387q6 23 28 23q11 0 18.5 -8t3.5 -22zM609 785q2 -5 3.5 -7.5t1.5 -5.5q0 -10 -14 -10q-10 0 -17 2t-15 12l-44 57l-82 -58q-10 -7 -16.5 -10t-16.5 -3q-14 0 -14 10q0 6 8 14l94 86q8 8 16 13t17 5h6q9 0 14.5 -4.5
t10.5 -13.5z" />
    <glyph glyph-name="Udieresis" unicode="&#xdc;" horiz-adv-x="756" 
d="M670 283q-18 -67 -46 -118t-65 -88q-43 -43 -96.5 -65.5t-114.5 -22.5q-63 0 -110 17t-78.5 46.5t-47.5 69.5t-16 87q0 29 3.5 55.5t10.5 52.5l97 364q6 23 28 23q11 0 18.5 -8t3.5 -22l-101 -381q-4 -15 -6.5 -36t-2.5 -44q0 -37 12.5 -69.5t37.5 -56.5t64 -37.5
t91 -13.5q47 0 91 18t80 54q29 29 55 75.5t43 110.5l104 387q6 23 28 23q11 0 18.5 -8t3.5 -22zM462 786q-8 -27 -37 -27q-15 0 -23.5 9.5t-5.5 23.5l9 33q8 27 37 27q15 0 24 -9.5t5 -23.5zM625 786q-8 -27 -37 -27q-15 0 -23.5 9.5t-5.5 23.5l9 33q8 27 37 27
q15 0 24 -9.5t5 -23.5z" />
    <glyph glyph-name="Yacute" unicode="&#xdd;" horiz-adv-x="668" 
d="M291 19q-6 -23 -28 -23q-11 0 -18.5 8t-3.5 22l69 258l-166 377q-4 9 -4 18q0 11 7 18t18 7t16.5 -6t10.5 -17l153 -357l354 366q6 6 12.5 10t15.5 4t16 -6t7 -16q0 -8 -3.5 -13.5t-8.5 -10.5l-380 -387zM491 775q-10 -8 -19 -10.5t-19 -2.5q-14 0 -14 10q0 6 5 11l88 95
q8 8 14 12.5t15 4.5q14 0 29 -8.5t15 -16.5q0 -9 -11 -17z" />
    <glyph glyph-name="Thorn" unicode="&#xde;" horiz-adv-x="668" 
d="M305 182q142 0 217 52t75 149q0 57 -36 93q-49 49 -154 49h-178l-92 -343h168zM408 573q63 0 112 -15.5t81 -47.5q48 -48 48 -125q0 -60 -24 -106.5t-69 -78.5t-109 -48.5t-144 -16.5h-178l-32 -116q-6 -23 -28 -23q-11 0 -18.5 8t-3.5 22l176 655q6 23 27 23
q11 0 18.5 -8t3.5 -22l-26 -101h166z" />
    <glyph glyph-name="germandbls" unicode="&#xdf;" horiz-adv-x="620" 
d="M334 389q110 28 161 73.5t51 111.5q0 51 -36 84t-102 33q-74 0 -126 -54.5t-78 -151.5l-125 -466q-6 -23 -27 -23q-11 0 -17 8t-3 20l127 476q14 51 36 94.5t51 72.5q34 34 76 52t90 18q41 0 75 -12t59 -33.5t39 -51t14 -64.5q0 -45 -17 -79t-46 -59.5t-67.5 -43
t-81.5 -29.5q33 -9 62 -22.5t50.5 -34t34 -47t12.5 -60.5q0 -45 -23.5 -82.5t-64.5 -64.5t-96 -41.5t-118 -14.5q-11 0 -16.5 6.5t-5.5 15.5q0 20 22 22q66 3 113 16.5t77 35t44.5 49.5t14.5 59t-14 53.5t-36 38.5t-49.5 26.5t-55.5 16.5q-24 5 -24 26q0 10 6 17t14 9z" />
    <glyph glyph-name="agrave" unicode="&#xe0;" horiz-adv-x="571" 
d="M199 33q36 0 72 12t67.5 34.5t55 53.5t33.5 70l12 45q-39 10 -87.5 17t-105.5 7q-38 0 -69.5 -10t-54 -28t-35 -42.5t-12.5 -54.5q0 -48 33.5 -76t90.5 -28zM398 -4q-11 0 -17 8t-3 20l17 64q-37 -44 -87.5 -72t-117.5 -28q-32 0 -62 9t-53.5 27t-37.5 44.5t-14 62.5
q0 42 17 76.5t47.5 58.5t73 37t92.5 13q55 0 106.5 -9t89.5 -20l4 14q3 11 5 25.5t2 25.5q0 58 -39.5 89t-114.5 31q-41 0 -72.5 -6.5t-56.5 -14.5q-8 -2 -13 -2q-20 0 -20 22q0 17 19 23q36 12 70.5 18t76.5 6q94 0 146 -42.5t52 -116.5q0 -14 -2.5 -32t-7.5 -35l-73 -273
q-6 -23 -27 -23zM260 684q-7 8 -7 16t12.5 15.5t26.5 7.5q9 0 16.5 -4t11.5 -14l36 -92q1 -2 2 -5t1 -7q0 -9 -13 -9q-10 0 -15 3t-10 9z" />
    <glyph glyph-name="aacute" unicode="&#xe1;" horiz-adv-x="571" 
d="M199 33q36 0 72 12t67.5 34.5t55 53.5t33.5 70l12 45q-39 10 -87.5 17t-105.5 7q-38 0 -69.5 -10t-54 -28t-35 -42.5t-12.5 -54.5q0 -48 33.5 -76t90.5 -28zM398 -4q-11 0 -17 8t-3 20l17 64q-37 -44 -87.5 -72t-117.5 -28q-32 0 -62 9t-53.5 27t-37.5 44.5t-14 62.5
q0 42 17 76.5t47.5 58.5t73 37t92.5 13q55 0 106.5 -9t89.5 -20l4 14q3 11 5 25.5t2 25.5q0 58 -39.5 89t-114.5 31q-41 0 -72.5 -6.5t-56.5 -14.5q-8 -2 -13 -2q-20 0 -20 22q0 17 19 23q36 12 70.5 18t76.5 6q94 0 146 -42.5t52 -116.5q0 -14 -2.5 -32t-7.5 -35l-73 -273
q-6 -23 -27 -23zM391 605q-10 -8 -19 -10.5t-19 -2.5q-14 0 -14 10q0 6 5 11l88 95q8 8 14 12.5t15 4.5q14 0 29 -8.5t15 -16.5q0 -9 -11 -17z" />
    <glyph glyph-name="acircumflex" unicode="&#xe2;" horiz-adv-x="571" 
d="M199 33q36 0 72 12t67.5 34.5t55 53.5t33.5 70l12 45q-39 10 -87.5 17t-105.5 7q-38 0 -69.5 -10t-54 -28t-35 -42.5t-12.5 -54.5q0 -48 33.5 -76t90.5 -28zM398 -4q-11 0 -17 8t-3 20l17 64q-37 -44 -87.5 -72t-117.5 -28q-32 0 -62 9t-53.5 27t-37.5 44.5t-14 62.5
q0 42 17 76.5t47.5 58.5t73 37t92.5 13q55 0 106.5 -9t89.5 -20l4 14q3 11 5 25.5t2 25.5q0 58 -39.5 89t-114.5 31q-41 0 -72.5 -6.5t-56.5 -14.5q-8 -2 -13 -2q-20 0 -20 22q0 17 19 23q36 12 70.5 18t76.5 6q94 0 146 -42.5t52 -116.5q0 -14 -2.5 -32t-7.5 -35l-73 -273
q-6 -23 -27 -23zM461 615q2 -5 3.5 -7.5t1.5 -5.5q0 -10 -14 -10q-10 0 -17 2t-15 12l-44 57l-82 -58q-10 -7 -16.5 -10t-16.5 -3q-14 0 -14 10q0 6 8 14l94 86q8 8 16 13t17 5h6q9 0 14.5 -4.5t10.5 -13.5z" />
    <glyph glyph-name="atilde" unicode="&#xe3;" horiz-adv-x="571" 
d="M199 33q36 0 72 12t67.5 34.5t55 53.5t33.5 70l12 45q-39 10 -87.5 17t-105.5 7q-38 0 -69.5 -10t-54 -28t-35 -42.5t-12.5 -54.5q0 -48 33.5 -76t90.5 -28zM398 -4q-11 0 -17 8t-3 20l17 64q-37 -44 -87.5 -72t-117.5 -28q-32 0 -62 9t-53.5 27t-37.5 44.5t-14 62.5
q0 42 17 76.5t47.5 58.5t73 37t92.5 13q55 0 106.5 -9t89.5 -20l4 14q3 11 5 25.5t2 25.5q0 58 -39.5 89t-114.5 31q-41 0 -72.5 -6.5t-56.5 -14.5q-8 -2 -13 -2q-20 0 -20 22q0 17 19 23q36 12 70.5 18t76.5 6q94 0 146 -42.5t52 -116.5q0 -14 -2.5 -32t-7.5 -35l-73 -273
q-6 -23 -27 -23zM237 590q-8 0 -14.5 4.5t-6.5 13.5q0 10 7 21q17 30 38 52.5t55 22.5q23 0 36.5 -9.5t30.5 -25.5t26 -23t22 -7q14 0 25.5 11.5t26.5 36.5q3 5 7.5 10t12.5 5t14.5 -4.5t6.5 -13.5q0 -10 -7 -21q-17 -30 -38 -52.5t-55 -22.5q-23 0 -36.5 9.5t-30.5 25.5
t-26 23t-22 7q-14 0 -25.5 -11.5t-26.5 -36.5q-3 -5 -7.5 -10t-12.5 -5z" />
    <glyph glyph-name="adieresis" unicode="&#xe4;" horiz-adv-x="571" 
d="M199 33q36 0 72 12t67.5 34.5t55 53.5t33.5 70l12 45q-39 10 -87.5 17t-105.5 7q-38 0 -69.5 -10t-54 -28t-35 -42.5t-12.5 -54.5q0 -48 33.5 -76t90.5 -28zM398 -4q-11 0 -17 8t-3 20l17 64q-37 -44 -87.5 -72t-117.5 -28q-32 0 -62 9t-53.5 27t-37.5 44.5t-14 62.5
q0 42 17 76.5t47.5 58.5t73 37t92.5 13q55 0 106.5 -9t89.5 -20l4 14q3 11 5 25.5t2 25.5q0 58 -39.5 89t-114.5 31q-41 0 -72.5 -6.5t-56.5 -14.5q-8 -2 -13 -2q-20 0 -20 22q0 17 19 23q36 12 70.5 18t76.5 6q94 0 146 -42.5t52 -116.5q0 -14 -2.5 -32t-7.5 -35l-73 -273
q-6 -23 -27 -23zM313 616q-8 -27 -37 -27q-15 0 -23.5 9.5t-5.5 23.5l9 33q8 27 37 27q15 0 24 -9.5t5 -23.5zM476 616q-8 -27 -37 -27q-15 0 -23.5 9.5t-5.5 23.5l9 33q8 27 37 27q15 0 24 -9.5t5 -23.5z" />
    <glyph glyph-name="aring" unicode="&#xe5;" horiz-adv-x="571" 
d="M199 33q36 0 72 12t67.5 34.5t55 53.5t33.5 70l12 45q-39 10 -87.5 17t-105.5 7q-38 0 -69.5 -10t-54 -28t-35 -42.5t-12.5 -54.5q0 -48 33.5 -76t90.5 -28zM398 -4q-11 0 -17 8t-3 20l17 64q-37 -44 -87.5 -72t-117.5 -28q-32 0 -62 9t-53.5 27t-37.5 44.5t-14 62.5
q0 42 17 76.5t47.5 58.5t73 37t92.5 13q55 0 106.5 -9t89.5 -20l4 14q3 11 5 25.5t2 25.5q0 58 -39.5 89t-114.5 31q-41 0 -72.5 -6.5t-56.5 -14.5q-8 -2 -13 -2q-20 0 -20 22q0 17 19 23q36 12 70.5 18t76.5 6q94 0 146 -42.5t52 -116.5q0 -14 -2.5 -32t-7.5 -35l-73 -273
q-6 -23 -27 -23zM373 595q-43 0 -68 23.5t-25 58.5q0 21 9 40t24 32.5t35 21.5t41 8q43 0 68 -23.5t25 -58.5q0 -21 -9 -40t-24 -32.5t-35 -21.5t-41 -8zM374 627q29 0 50.5 20t21.5 49q0 22 -14.5 36.5t-43.5 14.5t-50.5 -20t-21.5 -49q0 -22 14.5 -36.5t43.5 -14.5z" />
    <glyph glyph-name="ae" unicode="&#xe6;" horiz-adv-x="965" 
d="M250 272q-38 0 -70 -10t-55.5 -27t-36.5 -41t-13 -52q0 -50 33.5 -79.5t95.5 -29.5q65 0 124.5 33t113.5 92q-2 11 -3 23.5t-1 24.5q0 22 3 43q-35 10 -87.5 16.5t-103.5 6.5zM922 327q0 -20 -2.5 -37.5t-4.5 -28.5q-5 -23 -30 -23h-396q-1 -8 -1.5 -17t-0.5 -17
q0 -39 12.5 -70t34.5 -53.5t53.5 -34.5t68.5 -12q46 0 85 14t76 44q9 7 19 7q9 0 15 -6t6 -15q0 -12 -10 -20q-38 -32 -85 -51t-105 -19q-77 0 -128 34.5t-74 90.5q-52 -54 -117.5 -89.5t-137.5 -35.5q-37 0 -69.5 9.5t-56.5 28t-37.5 46.5t-13.5 64q0 42 17.5 75t49 56.5
t74.5 36t93 12.5q53 0 104 -9t88 -20l4 14q3 11 5 25.5t2 25.5q0 58 -39.5 89t-114.5 31q-37 0 -68.5 -5.5t-60.5 -15.5q-8 -2 -13 -2q-20 0 -20 22q0 17 19 23q34 11 69 17.5t78 6.5q81 0 131 -32t63 -89q40 54 98 89.5t127 35.5q48 0 84 -15.5t60.5 -42.5t36.5 -62.5
t12 -74.5zM868 282q2 7 3 17.5t1 24.5q0 31 -8.5 58.5t-26.5 48.5t-45 33.5t-64 12.5q-43 0 -80 -15.5t-67 -42.5t-51 -62.5t-32 -74.5h370z" />
    <glyph glyph-name="ccedilla" unicode="&#xe7;" horiz-adv-x="563" 
d="M459 62q-38 -33 -84 -53.5t-103 -20.5h-3l-90 -119q-3 -4 -8 -8t-13 -4q-12 0 -19.5 7.5t-7.5 15.5q0 11 10 22l85 91q-35 7 -67 24.5t-56 44.5t-38.5 64t-14.5 82q0 63 24 119.5t65.5 100t96 69t114.5 25.5q70 0 116 -30t72 -71q7 -10 7 -20q0 -9 -6.5 -15.5t-15.5 -6.5
q-15 0 -24 13q-25 37 -60 60.5t-92 23.5q-49 0 -93 -21.5t-77.5 -58.5t-53.5 -84.5t-20 -100.5q0 -43 14.5 -76t38.5 -55.5t55 -34t64 -11.5q43 0 80.5 16t72.5 46q8 7 19 7q9 0 15 -6.5t6 -15.5q0 -10 -9 -19z" />
    <glyph glyph-name="egrave" unicode="&#xe8;" horiz-adv-x="583" 
d="M484 282q2 7 3 17.5t1 24.5q0 31 -8.5 58.5t-26.5 48.5t-45 33.5t-64 12.5q-43 0 -80 -15.5t-67 -42.5t-51 -62.5t-32 -74.5h370zM272 34q48 0 86.5 14.5t74.5 43.5q9 7 19 7q9 0 15 -6t6 -15q0 -12 -10 -20q-38 -32 -84 -51t-107 -19q-49 0 -89.5 15.5t-70 44t-46 68
t-16.5 86.5q0 60 23 117.5t62.5 102.5t93.5 72.5t116 27.5q48 0 84 -15.5t60.5 -42.5t36.5 -62.5t12 -74.5q0 -20 -2.5 -37.5t-4.5 -28.5q-5 -23 -30 -23h-396q-1 -8 -1.5 -17t-0.5 -17q0 -39 12.5 -70t34.5 -53.5t53.5 -34.5t68.5 -12zM282 684q-7 8 -7 16t12.5 15.5
t26.5 7.5q9 0 16.5 -4t11.5 -14l36 -92q1 -2 2 -5t1 -7q0 -9 -13 -9q-10 0 -15 3t-10 9z" />
    <glyph glyph-name="eacute" unicode="&#xe9;" horiz-adv-x="583" 
d="M484 282q2 7 3 17.5t1 24.5q0 31 -8.5 58.5t-26.5 48.5t-45 33.5t-64 12.5q-43 0 -80 -15.5t-67 -42.5t-51 -62.5t-32 -74.5h370zM272 34q48 0 86.5 14.5t74.5 43.5q9 7 19 7q9 0 15 -6t6 -15q0 -12 -10 -20q-38 -32 -84 -51t-107 -19q-49 0 -89.5 15.5t-70 44t-46 68
t-16.5 86.5q0 60 23 117.5t62.5 102.5t93.5 72.5t116 27.5q48 0 84 -15.5t60.5 -42.5t36.5 -62.5t12 -74.5q0 -20 -2.5 -37.5t-4.5 -28.5q-5 -23 -30 -23h-396q-1 -8 -1.5 -17t-0.5 -17q0 -39 12.5 -70t34.5 -53.5t53.5 -34.5t68.5 -12zM413 605q-10 -8 -19 -10.5t-19 -2.5
q-14 0 -14 10q0 6 5 11l88 95q8 8 14 12.5t15 4.5q14 0 29 -8.5t15 -16.5q0 -9 -11 -17z" />
    <glyph glyph-name="ecircumflex" unicode="&#xea;" horiz-adv-x="583" 
d="M484 282q2 7 3 17.5t1 24.5q0 31 -8.5 58.5t-26.5 48.5t-45 33.5t-64 12.5q-43 0 -80 -15.5t-67 -42.5t-51 -62.5t-32 -74.5h370zM272 34q48 0 86.5 14.5t74.5 43.5q9 7 19 7q9 0 15 -6t6 -15q0 -12 -10 -20q-38 -32 -84 -51t-107 -19q-49 0 -89.5 15.5t-70 44t-46 68
t-16.5 86.5q0 60 23 117.5t62.5 102.5t93.5 72.5t116 27.5q48 0 84 -15.5t60.5 -42.5t36.5 -62.5t12 -74.5q0 -20 -2.5 -37.5t-4.5 -28.5q-5 -23 -30 -23h-396q-1 -8 -1.5 -17t-0.5 -17q0 -39 12.5 -70t34.5 -53.5t53.5 -34.5t68.5 -12zM482 615q2 -5 3.5 -7.5t1.5 -5.5
q0 -10 -14 -10q-10 0 -17 2t-15 12l-44 57l-82 -58q-10 -7 -16.5 -10t-16.5 -3q-14 0 -14 10q0 6 8 14l94 86q8 8 16 13t17 5h6q9 0 14.5 -4.5t10.5 -13.5z" />
    <glyph glyph-name="edieresis" unicode="&#xeb;" horiz-adv-x="583" 
d="M484 282q2 7 3 17.5t1 24.5q0 31 -8.5 58.5t-26.5 48.5t-45 33.5t-64 12.5q-43 0 -80 -15.5t-67 -42.5t-51 -62.5t-32 -74.5h370zM272 34q48 0 86.5 14.5t74.5 43.5q9 7 19 7q9 0 15 -6t6 -15q0 -12 -10 -20q-38 -32 -84 -51t-107 -19q-49 0 -89.5 15.5t-70 44t-46 68
t-16.5 86.5q0 60 23 117.5t62.5 102.5t93.5 72.5t116 27.5q48 0 84 -15.5t60.5 -42.5t36.5 -62.5t12 -74.5q0 -20 -2.5 -37.5t-4.5 -28.5q-5 -23 -30 -23h-396q-1 -8 -1.5 -17t-0.5 -17q0 -39 12.5 -70t34.5 -53.5t53.5 -34.5t68.5 -12zM335 616q-8 -27 -37 -27
q-15 0 -23.5 9.5t-5.5 23.5l9 33q8 27 37 27q15 0 24 -9.5t5 -23.5zM498 616q-8 -27 -37 -27q-15 0 -23.5 9.5t-5.5 23.5l9 33q8 27 37 27q15 0 24 -9.5t5 -23.5z" />
    <glyph glyph-name="igrave" unicode="&#xec;" horiz-adv-x="250" 
d="M86 19q-6 -23 -27 -23q-11 0 -17 8t-3 20l125 467q6 23 27 23q11 0 17 -8t3 -20zM120 684q-7 8 -7 16t12.5 15.5t26.5 7.5q9 0 16.5 -4t11.5 -14l36 -92q1 -2 2 -5t1 -7q0 -9 -13 -9q-10 0 -15 3t-10 9z" />
    <glyph glyph-name="iacute" unicode="&#xed;" horiz-adv-x="250" 
d="M86 19q-6 -23 -27 -23q-11 0 -17 8t-3 20l125 467q6 23 27 23q11 0 17 -8t3 -20zM251 605q-10 -8 -19 -10.5t-19 -2.5q-14 0 -14 10q0 6 5 11l88 95q8 8 14 12.5t15 4.5q14 0 29 -8.5t15 -16.5q0 -9 -11 -17z" />
    <glyph glyph-name="icircumflex" unicode="&#xee;" horiz-adv-x="250" 
d="M86 19q-6 -23 -27 -23q-11 0 -17 8t-3 20l125 467q6 23 27 23q11 0 17 -8t3 -20zM320 615q2 -5 3.5 -7.5t1.5 -5.5q0 -10 -14 -10q-10 0 -17 2t-15 12l-44 57l-82 -58q-10 -7 -16.5 -10t-16.5 -3q-14 0 -14 10q0 6 8 14l94 86q8 8 16 13t17 5h6q9 0 14.5 -4.5t10.5 -13.5
z" />
    <glyph glyph-name="idieresis" unicode="&#xef;" horiz-adv-x="250" 
d="M86 19q-6 -23 -27 -23q-11 0 -17 8t-3 20l125 467q6 23 27 23q11 0 17 -8t3 -20zM174 616q-8 -27 -37 -27q-15 0 -23.5 9.5t-5.5 23.5l9 33q8 27 37 27q15 0 24 -9.5t5 -23.5zM337 616q-8 -27 -37 -27q-15 0 -23.5 9.5t-5.5 23.5l9 33q8 27 37 27q15 0 24 -9.5t5 -23.5z
" />
    <glyph glyph-name="eth" unicode="&#xf0;" horiz-adv-x="616" 
d="M381 668l-10 24q-4 10 -4 18q0 9 8 16.5t20 7.5q11 0 17 -6.5t9 -14.5l9 -23l95 42q6 3 14 3q10 0 15.5 -6.5t5.5 -15.5q0 -8 -5 -14t-13 -9l-96 -42l74 -184q25 -62 36 -104.5t11 -85.5q0 -54 -22 -105t-61 -91t-93.5 -64.5t-119.5 -24.5q-48 0 -89 16.5t-71 45
t-47 67.5t-17 84q0 59 23.5 110.5t62.5 90t89.5 60.5t104.5 22q55 0 92 -16t62 -37l-83 195l-140 -62q-6 -3 -14 -3q-10 0 -15.5 6.5t-5.5 15.5q0 8 5 14t13 9zM276 35q48 0 91.5 19t76 51t51.5 75t19 92q0 34 -12.5 64.5t-36.5 54t-58.5 37t-78.5 13.5q-46 0 -87.5 -19
t-73 -51.5t-49.5 -75t-18 -90.5q0 -39 13 -70.5t36.5 -53.5t56 -34t70.5 -12z" />
    <glyph glyph-name="ntilde" unicode="&#xf1;" horiz-adv-x="611" 
d="M183 514q11 0 17 -8t3 -20l-18 -71q38 45 83.5 76t109.5 31q76 0 121.5 -44t45.5 -118q0 -17 -3 -35.5t-8 -36.5l-71 -269q-6 -23 -27 -23q-11 0 -17 8t-3 20l71 268q4 14 6 31.5t2 31.5q0 57 -35 90t-96 33q-33 0 -66 -14t-62 -39.5t-51.5 -60t-33.5 -76.5l-72 -269
q-6 -23 -27 -23q-11 0 -17 8t-3 20l124 467q6 23 27 23zM276 590q-8 0 -14.5 4.5t-6.5 13.5q0 10 7 21q17 30 38 52.5t55 22.5q23 0 36.5 -9.5t30.5 -25.5t26 -23t22 -7q14 0 25.5 11.5t26.5 36.5q3 5 7.5 10t12.5 5t14.5 -4.5t6.5 -13.5q0 -10 -7 -21q-17 -30 -38 -52.5
t-55 -22.5q-23 0 -36.5 9.5t-30.5 25.5t-26 23t-22 7q-14 0 -25.5 -11.5t-26.5 -36.5q-3 -5 -7.5 -10t-12.5 -5z" />
    <glyph glyph-name="ograve" unicode="&#xf2;" horiz-adv-x="633" 
d="M278 -12q-51 0 -92.5 17t-71.5 47t-46.5 71.5t-16.5 90.5q0 60 24.5 116t66 98.5t96.5 68t116 25.5q51 0 92.5 -17t71.5 -47t46.5 -71.5t16.5 -90.5q0 -62 -25 -118t-67 -98t-97 -67t-114 -25zM283 34q47 0 91 21t78 56.5t55 82.5t21 100q0 87 -49.5 134.5t-129.5 47.5
q-48 0 -92.5 -21.5t-78.5 -57.5t-54 -83t-20 -98q0 -87 49.5 -134.5t129.5 -47.5zM305 684q-7 8 -7 16t12.5 15.5t26.5 7.5q9 0 16.5 -4t11.5 -14l36 -92q1 -2 2 -5t1 -7q0 -9 -13 -9q-10 0 -15 3t-10 9z" />
    <glyph glyph-name="oacute" unicode="&#xf3;" horiz-adv-x="633" 
d="M278 -12q-51 0 -92.5 17t-71.5 47t-46.5 71.5t-16.5 90.5q0 60 24.5 116t66 98.5t96.5 68t116 25.5q51 0 92.5 -17t71.5 -47t46.5 -71.5t16.5 -90.5q0 -62 -25 -118t-67 -98t-97 -67t-114 -25zM283 34q47 0 91 21t78 56.5t55 82.5t21 100q0 87 -49.5 134.5t-129.5 47.5
q-48 0 -92.5 -21.5t-78.5 -57.5t-54 -83t-20 -98q0 -87 49.5 -134.5t129.5 -47.5zM436 605q-10 -8 -19 -10.5t-19 -2.5q-14 0 -14 10q0 6 5 11l88 95q8 8 14 12.5t15 4.5q14 0 29 -8.5t15 -16.5q0 -9 -11 -17z" />
    <glyph glyph-name="ocircumflex" unicode="&#xf4;" horiz-adv-x="633" 
d="M278 -12q-51 0 -92.5 17t-71.5 47t-46.5 71.5t-16.5 90.5q0 60 24.5 116t66 98.5t96.5 68t116 25.5q51 0 92.5 -17t71.5 -47t46.5 -71.5t16.5 -90.5q0 -62 -25 -118t-67 -98t-97 -67t-114 -25zM283 34q47 0 91 21t78 56.5t55 82.5t21 100q0 87 -49.5 134.5t-129.5 47.5
q-48 0 -92.5 -21.5t-78.5 -57.5t-54 -83t-20 -98q0 -87 49.5 -134.5t129.5 -47.5zM505 615q2 -5 3.5 -7.5t1.5 -5.5q0 -10 -14 -10q-10 0 -17 2t-15 12l-44 57l-82 -58q-10 -7 -16.5 -10t-16.5 -3q-14 0 -14 10q0 6 8 14l94 86q8 8 16 13t17 5h6q9 0 14.5 -4.5t10.5 -13.5z
" />
    <glyph glyph-name="otilde" unicode="&#xf5;" horiz-adv-x="633" 
d="M278 -12q-51 0 -92.5 17t-71.5 47t-46.5 71.5t-16.5 90.5q0 60 24.5 116t66 98.5t96.5 68t116 25.5q51 0 92.5 -17t71.5 -47t46.5 -71.5t16.5 -90.5q0 -62 -25 -118t-67 -98t-97 -67t-114 -25zM283 34q47 0 91 21t78 56.5t55 82.5t21 100q0 87 -49.5 134.5t-129.5 47.5
q-48 0 -92.5 -21.5t-78.5 -57.5t-54 -83t-20 -98q0 -87 49.5 -134.5t129.5 -47.5zM282 590q-8 0 -14.5 4.5t-6.5 13.5q0 10 7 21q17 30 38 52.5t55 22.5q23 0 36.5 -9.5t30.5 -25.5t26 -23t22 -7q14 0 25.5 11.5t26.5 36.5q3 5 7.5 10t12.5 5t14.5 -4.5t6.5 -13.5
q0 -10 -7 -21q-17 -30 -38 -52.5t-55 -22.5q-23 0 -36.5 9.5t-30.5 25.5t-26 23t-22 7q-14 0 -25.5 -11.5t-26.5 -36.5q-3 -5 -7.5 -10t-12.5 -5z" />
    <glyph glyph-name="odieresis" unicode="&#xf6;" horiz-adv-x="633" 
d="M278 -12q-51 0 -92.5 17t-71.5 47t-46.5 71.5t-16.5 90.5q0 60 24.5 116t66 98.5t96.5 68t116 25.5q51 0 92.5 -17t71.5 -47t46.5 -71.5t16.5 -90.5q0 -62 -25 -118t-67 -98t-97 -67t-114 -25zM283 34q47 0 91 21t78 56.5t55 82.5t21 100q0 87 -49.5 134.5t-129.5 47.5
q-48 0 -92.5 -21.5t-78.5 -57.5t-54 -83t-20 -98q0 -87 49.5 -134.5t129.5 -47.5zM358 616q-8 -27 -37 -27q-15 0 -23.5 9.5t-5.5 23.5l9 33q8 27 37 27q15 0 24 -9.5t5 -23.5zM521 616q-8 -27 -37 -27q-15 0 -23.5 9.5t-5.5 23.5l9 33q8 27 37 27q15 0 24 -9.5t5 -23.5z
" />
    <glyph glyph-name="divide" unicode="&#xf7;" 
d="M25 800h450v-1000h-450v1000z" />
    <glyph glyph-name="oslash" unicode="&#xf8;" horiz-adv-x="633" 
d="M283 34q47 0 91 21t78 56.5t55 82.5t21 100q0 27 -5 49.5t-14 42.5l-363 -298q48 -54 137 -54zM104 216q0 -27 5 -49.5t14 -42.5l363 298q-49 54 -137 54q-48 0 -92.5 -21.5t-78.5 -57.5t-54 -83t-20 -98zM39 1q-13 -10 -23 -10q-19 0 -19 18q0 12 11 21l75 61
q-32 53 -32 123q0 60 24.5 116t66 98.5t96.5 68t116 25.5q54 0 96.5 -18.5t72.5 -50.5l72 58q13 10 23 10q19 0 19 -18q0 -12 -11 -21l-77 -63q32 -53 32 -123q0 -62 -25 -118t-67 -98t-97 -67t-114 -25q-54 0 -96.5 19t-72.5 51z" />
    <glyph glyph-name="ugrave" unicode="&#xf9;" horiz-adv-x="609" 
d="M426 -4q-11 0 -17 8t-3 20l18 71q-37 -45 -82.5 -76t-110.5 -31q-76 0 -121.5 44t-45.5 118q0 17 3 35.5t8 36.5l71 269q6 23 27 23q11 0 17 -8t3 -20l-71 -268q-4 -14 -6 -31.5t-2 -31.5q0 -57 35 -90t96 -33q33 0 66 14t62 39.5t51.5 60t33.5 76.5l72 269q6 23 27 23
q11 0 17 -8t3 -20l-124 -467q-6 -23 -27 -23zM287 684q-7 8 -7 16t12.5 15.5t26.5 7.5q9 0 16.5 -4t11.5 -14l36 -92q1 -2 2 -5t1 -7q0 -9 -13 -9q-10 0 -15 3t-10 9z" />
    <glyph glyph-name="uacute" unicode="&#xfa;" horiz-adv-x="609" 
d="M426 -4q-11 0 -17 8t-3 20l18 71q-37 -45 -82.5 -76t-110.5 -31q-76 0 -121.5 44t-45.5 118q0 17 3 35.5t8 36.5l71 269q6 23 27 23q11 0 17 -8t3 -20l-71 -268q-4 -14 -6 -31.5t-2 -31.5q0 -57 35 -90t96 -33q33 0 66 14t62 39.5t51.5 60t33.5 76.5l72 269q6 23 27 23
q11 0 17 -8t3 -20l-124 -467q-6 -23 -27 -23zM418 605q-10 -8 -19 -10.5t-19 -2.5q-14 0 -14 10q0 6 5 11l88 95q8 8 14 12.5t15 4.5q14 0 29 -8.5t15 -16.5q0 -9 -11 -17z" />
    <glyph glyph-name="ucircumflex" unicode="&#xfb;" horiz-adv-x="609" 
d="M426 -4q-11 0 -17 8t-3 20l18 71q-37 -45 -82.5 -76t-110.5 -31q-76 0 -121.5 44t-45.5 118q0 17 3 35.5t8 36.5l71 269q6 23 27 23q11 0 17 -8t3 -20l-71 -268q-4 -14 -6 -31.5t-2 -31.5q0 -57 35 -90t96 -33q33 0 66 14t62 39.5t51.5 60t33.5 76.5l72 269q6 23 27 23
q11 0 17 -8t3 -20l-124 -467q-6 -23 -27 -23zM488 615q2 -5 3.5 -7.5t1.5 -5.5q0 -10 -14 -10q-10 0 -17 2t-15 12l-44 57l-82 -58q-10 -7 -16.5 -10t-16.5 -3q-14 0 -14 10q0 6 8 14l94 86q8 8 16 13t17 5h6q9 0 14.5 -4.5t10.5 -13.5z" />
    <glyph glyph-name="udieresis" unicode="&#xfc;" horiz-adv-x="609" 
d="M426 -4q-11 0 -17 8t-3 20l18 71q-37 -45 -82.5 -76t-110.5 -31q-76 0 -121.5 44t-45.5 118q0 17 3 35.5t8 36.5l71 269q6 23 27 23q11 0 17 -8t3 -20l-71 -268q-4 -14 -6 -31.5t-2 -31.5q0 -57 35 -90t96 -33q33 0 66 14t62 39.5t51.5 60t33.5 76.5l72 269q6 23 27 23
q11 0 17 -8t3 -20l-124 -467q-6 -23 -27 -23zM340 616q-8 -27 -37 -27q-15 0 -23.5 9.5t-5.5 23.5l9 33q8 27 37 27q15 0 24 -9.5t5 -23.5zM503 616q-8 -27 -37 -27q-15 0 -23.5 9.5t-5.5 23.5l9 33q8 27 37 27q15 0 24 -9.5t5 -23.5z" />
    <glyph glyph-name="yacute" unicode="&#xfd;" horiz-adv-x="568" 
d="M-46 -98q40 -19 72 -19q39 0 77.5 26t85.5 94l-96 468q-2 10 -2 18q0 11 6.5 18t17.5 7t17.5 -7.5t8.5 -18.5l85 -434l296 440q13 20 29 20q11 0 16.5 -6t5.5 -15q0 -10 -6 -19l-338 -492q-55 -80 -104.5 -112.5t-104.5 -32.5q-25 0 -47.5 6.5t-43.5 17.5q-14 7 -14 22
q0 10 6.5 16.5t16.5 6.5q8 0 16 -4zM381 605q-10 -8 -19 -10.5t-19 -2.5q-14 0 -14 10q0 6 5 11l88 95q8 8 14 12.5t15 4.5q14 0 29 -8.5t15 -16.5q0 -9 -11 -17z" />
    <glyph glyph-name="thorn" unicode="&#xfe;" horiz-adv-x="654" 
d="M310 33q52 0 95.5 22t75 59t49 85.5t17.5 101.5q0 39 -11.5 71.5t-32.5 55.5t-50 35.5t-64 12.5q-48 0 -93.5 -22.5t-81.5 -59t-58 -84.5t-22 -99q0 -37 12.5 -69.5t36 -56.5t56 -38t71.5 -14zM216 711q6 23 27 23q11 0 17 -8t3 -20l-80 -296q38 46 90.5 79t121.5 33
q44 0 81.5 -16t65 -44.5t43 -68t15.5 -86.5q0 -68 -23.5 -126.5t-63.5 -101.5t-92 -67.5t-109 -24.5q-43 0 -76.5 12t-58 32t-41.5 46t-27 53l-73 -271q-6 -23 -27 -23q-11 0 -17 8t-3 20z" />
    <glyph glyph-name="ydieresis" unicode="&#xff;" horiz-adv-x="568" 
d="M-46 -98q40 -19 72 -19q39 0 77.5 26t85.5 94l-96 468q-2 10 -2 18q0 11 6.5 18t17.5 7t17.5 -7.5t8.5 -18.5l85 -434l296 440q13 20 29 20q11 0 16.5 -6t5.5 -15q0 -10 -6 -19l-338 -492q-55 -80 -104.5 -112.5t-104.5 -32.5q-25 0 -47.5 6.5t-43.5 17.5q-14 7 -14 22
q0 10 6.5 16.5t16.5 6.5q8 0 16 -4zM303 616q-8 -27 -37 -27q-15 0 -23.5 9.5t-5.5 23.5l9 33q8 27 37 27q15 0 24 -9.5t5 -23.5zM466 616q-8 -27 -37 -27q-15 0 -23.5 9.5t-5.5 23.5l9 33q8 27 37 27q15 0 24 -9.5t5 -23.5z" />
    <glyph glyph-name="dotlessi" unicode="&#x131;" horiz-adv-x="250" 
d="M86 19q-6 -23 -27 -23q-11 0 -17 8t-3 20l125 467q6 23 27 23q11 0 17 -8t3 -20z" />
    <glyph glyph-name="Lslash" unicode="&#x141;" horiz-adv-x="650" 
d="M183 363l86 318q6 23 28 23q11 0 18.5 -8t3.5 -22l-79 -295l204 59q3 1 8 2t10 1q19 0 19 -20q0 -10 -6.5 -15t-16.5 -8l-231 -66l-76 -284h384q10 0 17 -7t7 -17t-7 -17t-17 -7h-420q-11 0 -18 7.5t-4 18.5l77 289l-40 -11q-3 -1 -8 -2t-10 -1q-19 0 -19 20q0 10 6.5 15
t16.5 8z" />
    <glyph glyph-name="lslash" unicode="&#x142;" horiz-adv-x="309" 
d="M165 384l88 327q6 23 27 23q11 0 17 -8t3 -20l-82 -307l43 13q3 1 7.5 2t8.5 1q20 0 20 -22q0 -16 -17 -21l-75 -22l-89 -331q-6 -23 -27 -23q-11 0 -17 8t-3 20l83 311l-40 -11q-3 -1 -7.5 -2t-8.5 -1q-20 0 -20 22q0 16 17 21z" />
    <glyph glyph-name="OE" unicode="&#x152;" horiz-adv-x="1154" 
d="M549 48l162 604h-161q-95 0 -173.5 -31t-136.5 -89q-45 -45 -69.5 -104.5t-24.5 -129.5q0 -54 17 -97t48 -74q39 -39 98.5 -59t134.5 -20h105zM441 0q-82 0 -153 23t-119 71q-37 37 -57 86t-20 114q0 81 28 149.5t81 121.5q63 63 155 99t201 36h622q10 0 17 -7t7 -17
t-7 -17t-17 -7h-416l-74 -275h358q10 0 17 -7t7 -17t-7 -17t-17 -7h-371l-75 -281h408q10 0 17 -7t7 -17t-7 -17t-17 -7h-568z" />
    <glyph glyph-name="oe" unicode="&#x153;" horiz-adv-x="1046" 
d="M949 282q2 7 3 17.5t1 24.5q0 31 -8.5 58.5t-26.5 48.5t-45 33.5t-64 12.5q-43 0 -80 -15.5t-67 -42.5t-51 -62.5t-32 -74.5h370zM283 34q47 0 91 20.5t78 56t55 81.5t21 97q0 91 -49.5 139t-129.5 48q-48 0 -92.5 -21.5t-78.5 -57.5t-54 -83t-20 -98q0 -87 49.5 -134.5
t129.5 -47.5zM737 34q48 0 85.5 14t75.5 44q9 7 19 7q9 0 15 -6t6 -15q0 -12 -10 -20q-36 -31 -82.5 -50.5t-105.5 -19.5q-82 0 -138.5 42.5t-72.5 112.5q-19 -31 -44.5 -59t-57 -49.5t-70 -34t-82.5 -12.5q-49 0 -90 17t-71 47t-46.5 71.5t-16.5 90.5q0 60 24.5 116
t66 98.5t96.5 68t116 25.5q44 0 79.5 -13t62 -35t44 -52t24.5 -63q17 32 40.5 61.5t54 52t68.5 36t83 13.5q48 0 84 -15.5t60.5 -42.5t36.5 -62.5t12 -74.5q0 -23 -2.5 -39.5t-5.5 -29.5q-2 -8 -8.5 -14t-16.5 -6h-400q-1 -8 -1.5 -17t-0.5 -17q0 -39 12.5 -70t34.5 -53.5
t53.5 -34.5t68.5 -12z" />
    <glyph glyph-name="Scaron" unicode="&#x160;" horiz-adv-x="638" 
d="M304 37q43 0 80 11.5t64 32t42.5 48.5t15.5 61q0 23 -8 41.5t-26 35t-47.5 32.5t-71.5 32q-54 21 -92 40.5t-62 41t-35 47t-11 57.5q0 40 18 75t51 61.5t79 41.5t103 15q78 0 133.5 -26.5t90.5 -59.5q5 -5 8 -9.5t3 -12.5q0 -11 -7 -18t-18 -7q-12 0 -22 10
q-37 37 -84.5 56.5t-108.5 19.5q-45 0 -81 -12t-60.5 -31.5t-38 -45t-13.5 -53.5q0 -49 40.5 -79.5t126.5 -63.5q98 -37 142 -78t44 -106q0 -43 -19.5 -80t-54 -64.5t-82.5 -43.5t-104 -16q-165 0 -263 113q-3 4 -6.5 9.5t-3.5 12.5q0 11 6.5 18t17.5 7q13 0 22 -12
q42 -49 96.5 -75t135.5 -26zM374 877q-2 5 -3.5 7.5t-1.5 5.5q0 10 14 10q10 0 17 -2t15 -12l44 -57l82 58q10 7 16.5 10t16.5 3q14 0 14 -10q0 -6 -8 -14l-94 -86q-8 -8 -16 -13t-17 -5h-6q-9 0 -14.5 4.5t-10.5 13.5z" />
    <glyph glyph-name="scaron" unicode="&#x161;" horiz-adv-x="495" 
d="M223 34q24 0 48 7t42.5 20.5t30 32t11.5 41.5q0 15 -5 28t-17.5 25t-34 24t-54.5 24q-73 27 -108 56.5t-35 80.5q0 30 13.5 57t38 47.5t59.5 32t78 11.5q24 0 48 -5t46 -12.5t40.5 -17t31.5 -19.5t13 -23q0 -10 -6.5 -16.5t-16.5 -6.5q-5 0 -9.5 1.5t-6.5 3.5
q-32 23 -68 36.5t-77 13.5q-32 0 -57 -8t-41.5 -21.5t-25 -30.5t-8.5 -35q0 -15 4.5 -27t17.5 -23.5t35 -23.5t58 -26q77 -30 108 -61t31 -77q0 -33 -15 -61.5t-41 -49t-60.5 -32t-73.5 -11.5q-54 0 -104 17.5t-95 54.5q-12 10 -12 23q0 10 6.5 17t16.5 7q9 0 22 -10
q40 -33 82.5 -48.5t89.5 -15.5zM255 697q-2 5 -3.5 7.5t-1.5 5.5q0 10 14 10q10 0 17 -2t15 -12l44 -57l82 58q10 7 16.5 10t16.5 3q14 0 14 -10q0 -6 -8 -14l-94 -86q-8 -8 -16 -13t-17 -5h-6q-9 0 -14.5 4.5t-10.5 13.5z" />
    <glyph glyph-name="Ydieresis" unicode="&#x178;" horiz-adv-x="668" 
d="M291 19q-6 -23 -28 -23q-11 0 -18.5 8t-3.5 22l69 258l-166 377q-4 9 -4 18q0 11 7 18t18 7t16.5 -6t10.5 -17l153 -357l354 366q6 6 12.5 10t15.5 4t16 -6t7 -16q0 -8 -3.5 -13.5t-8.5 -10.5l-380 -387zM413 786q-8 -27 -37 -27q-15 0 -23.5 9.5t-5.5 23.5l9 33
q8 27 37 27q15 0 24 -9.5t5 -23.5zM576 786q-8 -27 -37 -27q-15 0 -23.5 9.5t-5.5 23.5l9 33q8 27 37 27q15 0 24 -9.5t5 -23.5z" />
    <glyph glyph-name="Zcaron" unicode="&#x17d;" horiz-adv-x="662" 
d="M625 653h-425q-10 0 -17 6.5t-7 16.5t7 17t17 7h489q20 0 20 -17v-1q0 -13 -14 -27l-620 -608h445q10 0 17 -6.5t7 -16.5t-7 -17t-17 -7h-509q-20 0 -20 17v1q0 13 14 27zM371 867q-2 5 -3.5 7.5t-1.5 5.5q0 10 14 10q10 0 17 -2t15 -12l44 -57l82 58q10 7 16.5 10
t16.5 3q14 0 14 -10q0 -6 -8 -14l-94 -86q-8 -8 -16 -13t-17 -5h-6q-9 0 -14.5 4.5t-10.5 13.5z" />
    <glyph glyph-name="zcaron" unicode="&#x17e;" horiz-adv-x="546" 
d="M527 510q21 0 21 -18v-1q0 -10 -10 -20l-463 -427h336q9 0 15.5 -6.5t6.5 -15.5t-6.5 -15.5t-15.5 -6.5h-397q-21 0 -21 18v1q0 10 10 20l463 427h-319q-9 0 -15.5 6.5t-6.5 15.5t6.5 15.5t15.5 6.5h380zM271 697q-2 5 -3.5 7.5t-1.5 5.5q0 10 14 10q10 0 17 -2t15 -12
l44 -57l82 58q10 7 16.5 10t16.5 3q14 0 14 -10q0 -6 -8 -14l-94 -86q-8 -8 -16 -13t-17 -5h-6q-9 0 -14.5 4.5t-10.5 13.5z" />
    <glyph glyph-name="florin" unicode="&#x192;" horiz-adv-x="526" 
d="M36 -10q-38 0 -38 22t34 22q37 0 64.5 23.5t53.5 83.5l107 243h-82q-9 0 -16 6.5t-7 15.5q0 10 7 16.5t16 6.5h101l59 134q32 75 75 111t103 36q33 0 60 -8q20 -6 20 -22q0 -9 -6 -16t-14 -7t-22 4.5t-40 4.5q-42 0 -73.5 -27.5t-57.5 -87.5l-54 -122h137q9 0 16 -7
t7 -16t-7 -15.5t-16 -6.5h-156l-112 -255q-34 -79 -73 -109t-86 -30z" />
    <glyph glyph-name="circumflex" unicode="&#x2c6;" 
d="M451 615q2 -5 3.5 -7.5t1.5 -5.5q0 -10 -14 -10q-10 0 -17 2t-15 12l-44 57l-82 -58q-10 -7 -16.5 -10t-16.5 -3q-14 0 -14 10q0 6 8 14l94 86q8 8 16 13t17 5h6q9 0 14.5 -4.5t10.5 -13.5z" />
    <glyph glyph-name="caron" unicode="&#x2c7;" 
d="M265 697q-2 5 -3.5 7.5t-1.5 5.5q0 10 14 10q10 0 17 -2t15 -12l44 -57l82 58q10 7 16.5 10t16.5 3q14 0 14 -10q0 -6 -8 -14l-94 -86q-8 -8 -16 -13t-17 -5h-6q-9 0 -14.5 4.5t-10.5 13.5z" />
    <glyph glyph-name="breve" unicode="&#x2d8;" 
d="M339 593q-43 0 -73.5 21.5t-30.5 70.5q0 18 6.5 27t17.5 9q10 0 14 -5.5t6 -14.5q4 -24 17 -40.5t54 -16.5q38 0 61 17t40 42q6 9 11.5 13.5t13.5 4.5t14 -5t6 -13q0 -7 -3 -13q-23 -47 -64.5 -72t-89.5 -25z" />
    <glyph glyph-name="dotaccent" unicode="&#x2d9;" 
d="M380 616q-8 -27 -37 -27q-15 0 -23.5 9.5t-5.5 23.5l9 33q8 27 37 27q15 0 24 -9.5t5 -23.5z" />
    <glyph glyph-name="ring" unicode="&#x2da;" 
d="M356 595q-43 0 -68 23.5t-25 58.5q0 21 9 40t24 32.5t35 21.5t41 8q43 0 68 -23.5t25 -58.5q0 -21 -9 -40t-24 -32.5t-35 -21.5t-41 -8zM357 627q29 0 50.5 20t21.5 49q0 22 -14.5 36.5t-43.5 14.5t-50.5 -20t-21.5 -49q0 -22 14.5 -36.5t43.5 -14.5z" />
    <glyph glyph-name="ogonek" unicode="&#x2db;" 
d="M200 -163q-51 0 -74.5 20t-23.5 45q0 33 29.5 61t73.5 55l30 -17q-82 -54 -82 -91q0 -14 11 -22t41 -14q16 -3 16 -18q0 -19 -21 -19z" />
    <glyph glyph-name="tilde" unicode="&#x2dc;" 
d="M220 590q-8 0 -14.5 4.5t-6.5 13.5q0 10 7 21q17 30 38 52.5t55 22.5q23 0 36.5 -9.5t30.5 -25.5t26 -23t22 -7q14 0 25.5 11.5t26.5 36.5q3 5 7.5 10t12.5 5t14.5 -4.5t6.5 -13.5q0 -10 -7 -21q-17 -30 -38 -52.5t-55 -22.5q-23 0 -36.5 9.5t-30.5 25.5t-26 23t-22 7
q-14 0 -25.5 -11.5t-26.5 -36.5q-3 -5 -7.5 -10t-12.5 -5z" />
    <glyph glyph-name="hungarumlaut" unicode="&#x2dd;" 
d="M328 725q12 0 19 -8t7 -16q0 -11 -12 -20l-95 -76q-10 -8 -17 -10.5t-16 -2.5q-11 0 -11 9q0 6 6 12l89 95q8 8 14.5 12.5t15.5 4.5zM480 725q12 0 19 -8t7 -16q0 -11 -12 -20l-95 -76q-10 -8 -17 -10.5t-16 -2.5q-11 0 -11 9q0 6 6 12l89 95q8 8 14.5 12.5t15.5 4.5z
" />
    <glyph glyph-name="pi" unicode="&#x3c0;" horiz-adv-x="830" 
d="M439 -12q-76 0 -142 28.5t-114.5 77.5t-76.5 115t-28 140t28 140t77 115.5t115.5 78.5t142.5 29t142 -28.5t114.5 -77.5t76.5 -115t28 -140t-28 -140t-77 -115.5t-115.5 -78.5t-142.5 -29zM439 16q71 0 132 26.5t105.5 72t70 106.5t25.5 130t-25 129.5t-69.5 106
t-105 71.5t-131.5 26t-132 -26.5t-105.5 -72t-70 -106.5t-25.5 -130t25 -129.5t69.5 -106t105 -71.5t131.5 -26zM321 519q0 9 6.5 15.5t15.5 6.5h119q65 0 104 -29.5t39 -85.5v-2q0 -31 -12.5 -53.5t-33 -37.5t-47.5 -22.5t-57 -7.5h-90v-110q0 -9 -6.5 -15.5t-15.5 -6.5
t-15.5 6.5t-6.5 15.5v326zM456 344q48 0 76 20t28 58v2q0 39 -27 57.5t-74 18.5h-94v-156h91z" />
    <glyph glyph-name="endash" unicode="&#x2013;" horiz-adv-x="528" 
d="M103 271q-11 0 -18.5 7.5t-7.5 18.5t7.5 18.5t18.5 7.5h344q11 0 18.5 -7.5t7.5 -18.5t-7.5 -18.5t-18.5 -7.5h-344z" />
    <glyph glyph-name="emdash" unicode="&#x2014;" horiz-adv-x="898" 
d="M103 271q-11 0 -18.5 7.5t-7.5 18.5t7.5 18.5t18.5 7.5h714q11 0 18.5 -7.5t7.5 -18.5t-7.5 -18.5t-18.5 -7.5h-714z" />
    <glyph glyph-name="quoteleft" unicode="&#x2018;" horiz-adv-x="231" 
d="M280 677q-32 -14 -48.5 -32t-22.5 -47q8 -1 15.5 -8.5t3.5 -21.5l-9 -33q-8 -26 -36 -26q-14 0 -23 9.5t-5 23.5l12 45q8 27 17.5 45.5t22.5 31.5t28.5 21.5t35.5 15.5q8 3 13.5 -0.5t5.5 -10.5q0 -9 -10 -13z" />
    <glyph glyph-name="quoteright" unicode="&#x2019;" horiz-adv-x="231" 
d="M130 536q32 14 48.5 32t22.5 47q-8 1 -15.5 8.5t-3.5 21.5l9 33q8 26 36 26q14 0 23 -9.5t5 -23.5l-12 -45q-8 -27 -17.5 -45.5t-22.5 -31.5q-23 -23 -64 -37q-8 -3 -13.5 0.5t-5.5 10.5q0 9 10 13z" />
    <glyph glyph-name="quotesinglbase" unicode="&#x201a;" horiz-adv-x="231" 
d="M-30 -79q32 14 48.5 32t22.5 47q-8 1 -15.5 8.5t-3.5 21.5l9 33q8 26 36 26q14 0 23 -9.5t5 -23.5l-12 -45q-8 -27 -17.5 -45.5t-22.5 -31.5t-28.5 -21.5t-35.5 -15.5q-8 -3 -13.5 0.5t-5.5 10.5q0 9 10 13z" />
    <glyph glyph-name="quotedblleft" unicode="&#x201c;" horiz-adv-x="411" 
d="M362 509q-14 0 -23 9.5t-5 23.5l12 45q8 27 17.5 45.5t22.5 31.5t28.5 21.5t35.5 15.5q8 3 13.5 -0.5t5.5 -10.5q0 -9 -10 -13q-32 -14 -48.5 -32t-22.5 -47q8 -1 15.5 -8.5t3.5 -21.5l-9 -33q-8 -26 -36 -26zM182 509q-14 0 -23 9.5t-5 23.5l12 45q8 27 17.5 45.5
t22.5 31.5t28.5 21.5t35.5 15.5q8 3 13.5 -0.5t5.5 -10.5q0 -9 -10 -13q-32 -14 -48.5 -32t-22.5 -47q8 -1 15.5 -8.5t3.5 -21.5l-9 -33q-8 -26 -36 -26z" />
    <glyph glyph-name="quotedblright" unicode="&#x201d;" horiz-adv-x="411" 
d="M129 536q32 14 48.5 32t22.5 47q-8 1 -15.5 8.5t-3.5 21.5l9 33q8 26 36 26q14 0 23 -9.5t5 -23.5l-12 -45q-8 -27 -17.5 -45.5t-22.5 -31.5q-23 -23 -64 -37q-8 -3 -13.5 0.5t-5.5 10.5q0 9 10 13zM309 536q32 14 48.5 32t22.5 47q-8 1 -15.5 8.5t-3.5 21.5l9 33
q8 26 36 26q14 0 23 -9.5t5 -23.5l-12 -45q-8 -27 -17.5 -45.5t-22.5 -31.5q-23 -23 -64 -37q-8 -3 -13.5 0.5t-5.5 10.5q0 9 10 13z" />
    <glyph glyph-name="quotedblbase" unicode="&#x201e;" horiz-adv-x="412" 
d="M-30 -79q32 14 48.5 32t22.5 47q-8 1 -15.5 8.5t-3.5 21.5l9 33q8 26 36 26q14 0 23 -9.5t5 -23.5l-12 -45q-8 -27 -17.5 -45.5t-22.5 -31.5t-28.5 -21.5t-35.5 -15.5q-8 -3 -13.5 0.5t-5.5 10.5q0 9 10 13zM150 -79q32 14 48.5 32t22.5 47q-8 1 -15.5 8.5t-3.5 21.5
l9 33q8 26 36 26q14 0 23 -9.5t5 -23.5l-12 -45q-8 -27 -17.5 -45.5t-22.5 -31.5q-23 -24 -64 -37q-8 -3 -13.5 0.5t-5.5 10.5q0 9 10 13z" />
    <glyph glyph-name="dagger" unicode="&#x2020;" horiz-adv-x="410" 
d="M285 555l101 6q9 1 16 -6t7 -16t-7 -15.5t-16 -5.5l-111 6l-67 -269q-5 -21 -24 -21q-10 0 -15 7.5t-3 18.5l75 264l-101 -6q-9 -1 -16 5.5t-7 15.5t7 16t16 6l109 -6l28 125q5 24 26 24q12 0 18 -9t2 -20z" />
    <glyph glyph-name="daggerdbl" unicode="&#x2021;" horiz-adv-x="430" 
d="M192 176l102 6q9 1 16 -5.5t7 -15.5t-7 -16t-16 -6l-109 6l-28 -125q-5 -24 -26 -24q-12 0 -18 9t-2 20l38 120l-101 -6q-9 -1 -16 6t-7 16t7 15.5t16 5.5l110 -6l42 174l51 174l-101 -6q-9 -1 -16 5.5t-7 15.5t7 16t16 6l109 -6l28 125q5 24 26 24q12 0 18 -9t2 -20
l-38 -120l101 6q9 1 16 -6t7 -16t-7 -15.5t-16 -5.5l-111 6l-41 -174z" />
    <glyph glyph-name="bullet" unicode="&#x2022;" horiz-adv-x="470" 
d="M232 222q-46 0 -75.5 29t-29.5 80q0 30 11.5 57.5t31 48.5t45.5 33t55 12q46 0 75.5 -29t29.5 -80q0 -30 -11.5 -57.5t-31 -48.5t-45.5 -33t-55 -12z" />
    <glyph glyph-name="ellipsis" unicode="&#x2026;" horiz-adv-x="683" 
d="M85 20q-3 -12 -12.5 -18t-23.5 -6t-22.5 8.5t-5.5 21.5l10 37q8 26 36 26q14 0 22.5 -9t5.5 -22zM311 20q-3 -12 -12.5 -18t-23.5 -6t-22.5 8.5t-5.5 21.5l10 37q8 26 36 26q14 0 22.5 -9t5.5 -22zM537 20q-3 -12 -12.5 -18t-23.5 -6t-22.5 8.5t-5.5 21.5l10 37
q8 26 36 26q14 0 22.5 -9t5.5 -22z" />
    <glyph glyph-name="perthousand" unicode="&#x2030;" horiz-adv-x="1203" 
d="M230 346q-30 0 -55.5 11t-43.5 30.5t-28 45.5t-10 56q0 42 15 81.5t40.5 70t60.5 49t75 18.5q30 0 55.5 -11t43.5 -30.5t28 -45.5t10 -56q0 -42 -15 -81.5t-40.5 -70t-60.5 -49t-75 -18.5zM588 -7q-30 0 -55.5 11t-43.5 30.5t-28 45.5t-10 56q0 42 15 81.5t40.5 70
t60.5 49t75 18.5q30 0 55.5 -11t43.5 -30.5t28 -45.5t10 -56q0 -42 -15 -81.5t-40.5 -70t-60.5 -49t-75 -18.5zM234 389q29 0 54 15t44 39.5t29.5 55t10.5 61.5q0 48 -23.5 76.5t-68.5 28.5q-29 0 -54 -15t-44 -39.5t-29.5 -55t-10.5 -61.5q0 -48 23.5 -76.5t68.5 -28.5z
M592 36q29 0 54 15t44 39.5t29.5 55t10.5 61.5q0 48 -23.5 76.5t-68.5 28.5q-29 0 -54 -15t-44 -39.5t-29.5 -55t-10.5 -61.5q0 -48 23.5 -76.5t68.5 -28.5zM970 -7q-30 0 -55.5 11t-43.5 30.5t-28 45.5t-10 56q0 42 15 81.5t40.5 70t60.5 49t75 18.5q30 0 55.5 -11
t43.5 -30.5t28 -45.5t10 -56q0 -42 -15 -81.5t-40.5 -70t-60.5 -49t-75 -18.5zM974 36q29 0 54 15t44 39.5t29.5 55t10.5 61.5q0 48 -23.5 76.5t-68.5 28.5q-29 0 -54 -15t-44 -39.5t-29.5 -55t-10.5 -61.5q0 -48 23.5 -76.5t68.5 -28.5zM137 12q-6 -6 -12.5 -11t-14.5 -5
t-14 5.5t-6 14.5q0 10 11 21l635 652q6 6 12.5 11t14.5 5t14 -5.5t6 -14.5q0 -10 -11 -21z" />
    <glyph glyph-name="guilsinglleft" unicode="&#x2039;" horiz-adv-x="311" 
d="M245 450q6 6 12.5 11t14.5 5q21 0 21 -22q0 -10 -9 -19l-177 -177l75 -166q4 -9 4 -17q0 -9 -6.5 -15.5t-16.5 -6.5q-15 0 -23 17l-88 177q-5 10 -5 15q0 7 7 14z" />
    <glyph glyph-name="guilsinglright" unicode="&#x203a;" horiz-adv-x="311" 
d="M65 59q-6 -6 -12.5 -11t-14.5 -5q-21 0 -21 22q0 10 9 19l177 177l-75 166q-4 9 -4 17q0 9 6.5 15.5t16.5 6.5q15 0 23 -17l88 -177q5 -10 5 -15q0 -7 -7 -14z" />
    <glyph glyph-name="fraction" unicode="&#x2044;" horiz-adv-x="550" 
d="M-13 -84q-6 -8 -12.5 -13t-15.5 -5t-15 5.5t-6 13.5q0 11 9 22l656 805q6 8 12.5 13t15.5 5t15 -5.5t6 -13.5q0 -11 -9 -22z" />
    <glyph glyph-name="Euro" unicode="&#x20ac;" horiz-adv-x="684" 
d="M497 464q10 0 17 -7t7 -17t-7 -17t-17 -7h-292q-9 -29 -14.5 -60t-7.5 -63h269q10 0 17 -7t7 -17t-7 -17t-17 -7h-269q2 -46 16 -84.5t38 -66.5t58.5 -43.5t77.5 -15.5q59 0 103.5 21.5t87.5 65.5q4 4 9 7t13 3t14.5 -6t6.5 -14t-3.5 -13.5t-8.5 -10.5
q-43 -43 -94.5 -71.5t-128.5 -28.5q-51 0 -94 17.5t-75.5 51t-51.5 81t-22 107.5h-65q-10 0 -17 7t-7 17t7 17t17 7h66q3 65 21 123h-42q-10 0 -17 7t-7 17t7 17t17 7h59q21 53 53.5 98.5t74.5 78.5t91.5 52t105.5 19q79 0 131 -38t79 -98q5 -12 5 -20q0 -11 -7 -17.5
t-18 -6.5q-15 0 -22 16q-10 23 -25 44.5t-36 37.5t-49.5 25.5t-66.5 9.5q-42 0 -81 -15t-72.5 -41.5t-60.5 -63.5t-47 -81h274z" />
    <glyph glyph-name="trademark" unicode="&#x2122;" horiz-adv-x="690" 
d="M192 403q-5 -15 -19 -15q-8 0 -12.5 5.5t-1.5 16.5l73 256h-83q-7 0 -12 4.5t-5 12.5q0 7 5 12t12 5h211q7 0 12 -4.5t5 -11.5q0 -8 -5 -13t-12 -5h-93zM739 700q21 0 15 -24l-78 -273q-5 -15 -19 -15q-8 0 -12.5 5.5t-1.5 16.5l64 221l-145 -157q-9 -11 -20 -11t-16 12
l-62 156l-66 -228q-5 -15 -19 -15q-8 0 -12.5 5.5t-1.5 16.5l78 272q5 18 19 18h1q13 0 19 -16l69 -174l163 178q5 5 10.5 8.5t13.5 3.5h1z" />
    <glyph glyph-name="Omega" horiz-adv-x="724" 
d="M109 19q-6 -23 -27 -23q-11 0 -17 8t-3 20l118 441h-48q-10 0 -16.5 6.5t-6.5 16.5q0 9 7 15.5t16 6.5h60l20 74q39 146 163 146q23 0 44 -4t38 -11q20 -8 20 -25q0 -11 -9 -18t-23 -1q-17 7 -34.5 11t-37.5 4q-40 0 -70 -26.5t-45 -86.5l-17 -63h158q10 0 16.5 -6.5
t6.5 -16.5q0 -9 -7 -15.5t-16 -6.5h-170zM471 19q-6 -23 -27 -23q-11 0 -17 8t-3 20l118 441h-48q-10 0 -16.5 6.5t-6.5 16.5q0 9 7 15.5t16 6.5h60l20 74q39 146 163 146q23 0 44 -4t38 -11q20 -8 20 -25q0 -11 -9 -18t-23 -1q-17 7 -34.5 11t-37.5 4q-40 0 -70 -26.5
t-45 -86.5l-17 -63h158q10 0 16.5 -6.5t6.5 -16.5q0 -9 -7 -15.5t-16 -6.5h-170z" />
    <glyph glyph-name="Ohm" unicode="&#x2126;" horiz-adv-x="724" 
d="M109 19q-6 -23 -27 -23q-11 0 -17 8t-3 20l118 441h-48q-10 0 -16.5 6.5t-6.5 16.5q0 9 7 15.5t16 6.5h60l20 74q39 146 163 146q23 0 44 -4t38 -11q20 -8 20 -25q0 -11 -9 -18t-23 -1q-17 7 -34.5 11t-37.5 4q-40 0 -70 -26.5t-45 -86.5l-17 -63h158q10 0 16.5 -6.5
t6.5 -16.5q0 -9 -7 -15.5t-16 -6.5h-170zM471 19q-6 -23 -27 -23q-11 0 -17 8t-3 20l118 441h-48q-10 0 -16.5 6.5t-6.5 16.5q0 9 7 15.5t16 6.5h60l20 74q39 146 163 146q23 0 44 -4t38 -11q20 -8 20 -25q0 -11 -9 -18t-23 -1q-17 7 -34.5 11t-37.5 4q-40 0 -70 -26.5
t-45 -86.5l-17 -63h158q10 0 16.5 -6.5t6.5 -16.5q0 -9 -7 -15.5t-16 -6.5h-170z" />
    <glyph glyph-name="partialdiff" unicode="&#x2202;" 
d="M25 800h450v-1000h-450v1000z" />
    <glyph glyph-name="Delta" unicode="&#x2206;" 
d="M25 800h450v-1000h-450v1000z" />
    <glyph glyph-name="product" unicode="&#x220f;" 
d="M25 800h450v-1000h-450v1000z" />
    <glyph glyph-name="summation" unicode="&#x2211;" 
d="M25 800h450v-1000h-450v1000z" />
    <glyph glyph-name="minus" unicode="&#x2212;" horiz-adv-x="620" 
d="M116 327q-11 0 -18 7t-7 18t7 18t18 7h442q11 0 18 -7t7 -18t-7 -18t-18 -7h-442z" />
    <glyph glyph-name="radical" unicode="&#x221a;" horiz-adv-x="974" 
d="M109 19q-6 -23 -27 -23q-11 0 -17 8t-3 20l118 441h-48q-10 0 -16.5 6.5t-6.5 16.5q0 9 7 15.5t16 6.5h60l20 74q39 146 163 146q23 0 44 -4t38 -11q20 -8 20 -25q0 -11 -9 -18t-23 -1q-17 7 -34.5 11t-37.5 4q-40 0 -70 -26.5t-45 -86.5l-17 -63h158q10 0 16.5 -6.5
t6.5 -16.5q0 -9 -7 -15.5t-16 -6.5h-170zM471 19q-6 -23 -27 -23q-11 0 -17 8t-3 20l118 441h-48q-10 0 -16.5 6.5t-6.5 16.5q0 9 7 15.5t16 6.5h60l20 74q39 146 163 146q23 0 44 -4t38 -11q20 -8 20 -25q0 -11 -9 -18t-23 -1q-17 7 -34.5 11t-37.5 4q-40 0 -70 -26.5
t-45 -86.5l-17 -63h158q10 0 16.5 -6.5t6.5 -16.5q0 -9 -7 -15.5t-16 -6.5h-170zM810 19q-6 -23 -27 -23q-11 0 -17 8t-3 20l184 687q6 23 27 23q11 0 17 -8t3 -20z" />
    <glyph glyph-name="infinity" unicode="&#x221e;" 
d="M25 800h450v-1000h-450v1000z" />
    <glyph glyph-name="integral" unicode="&#x222b;" 
d="M25 800h450v-1000h-450v1000z" />
    <glyph glyph-name="approxequal" unicode="&#x2248;" horiz-adv-x="974" 
d="M109 19q-6 -23 -27 -23q-11 0 -17 8t-3 20l118 441h-48q-10 0 -16.5 6.5t-6.5 16.5q0 9 7 15.5t16 6.5h60l20 74q39 146 163 146q23 0 44 -4t38 -11q20 -8 20 -25q0 -11 -9 -18t-23 -1q-17 7 -34.5 11t-37.5 4q-40 0 -70 -26.5t-45 -86.5l-17 -63h158q10 0 16.5 -6.5
t6.5 -16.5q0 -9 -7 -15.5t-16 -6.5h-170zM471 19q-6 -23 -27 -23q-11 0 -17 8t-3 20l118 441h-48q-10 0 -16.5 6.5t-6.5 16.5q0 9 7 15.5t16 6.5h60l20 74q39 146 163 146q23 0 44 -4t38 -11q20 -8 20 -25q0 -11 -9 -18t-23 -1q-17 7 -34.5 11t-37.5 4q-40 0 -70 -26.5
t-45 -86.5l-17 -63h158q10 0 16.5 -6.5t6.5 -16.5q0 -9 -7 -15.5t-16 -6.5h-170zM989 661q-6 -23 -34 -23q-14 0 -21.5 8t-4.5 20l7 26q6 23 34 23q14 0 21.5 -8t4.5 -20zM810 19q-6 -23 -27 -23q-11 0 -17 8t-3 20l125 467q6 23 27 23q11 0 17 -8t3 -20z" />
    <glyph glyph-name="notequal" unicode="&#x2260;" 
d="M25 800h450v-1000h-450v1000z" />
    <glyph glyph-name="lessequal" unicode="&#x2264;" 
d="M25 800h450v-1000h-450v1000z" />
    <glyph glyph-name="greaterequal" unicode="&#x2265;" 
d="M25 800h450v-1000h-450v1000z" />
    <glyph glyph-name="lozenge" unicode="&#x25ca;" 
d="M25 800h450v-1000h-450v1000z" />
    <glyph glyph-name="fi" unicode="&#xfb01;" horiz-adv-x="612" 
d="M109 19q-6 -23 -27 -23q-11 0 -17 8t-3 20l118 441h-48q-10 0 -16.5 6.5t-6.5 16.5q0 9 7 15.5t16 6.5h60l20 74q39 146 163 146q23 0 44 -4t38 -11q20 -8 20 -25q0 -11 -9 -18t-23 -1q-17 7 -34.5 11t-37.5 4q-40 0 -70 -26.5t-45 -86.5l-17 -63h158q10 0 16.5 -6.5
t6.5 -16.5q0 -9 -7 -15.5t-16 -6.5h-170zM627 661q-6 -23 -34 -23q-14 0 -21.5 8t-4.5 20l7 26q6 23 34 23q14 0 21.5 -8t4.5 -20zM448 19q-6 -23 -27 -23q-11 0 -17 8t-3 20l125 467q6 23 27 23q11 0 17 -8t3 -20z" />
    <glyph glyph-name="fl" unicode="&#xfb02;" horiz-adv-x="612" 
d="M109 19q-6 -23 -27 -23q-11 0 -17 8t-3 20l118 441h-48q-10 0 -16.5 6.5t-6.5 16.5q0 9 7 15.5t16 6.5h60l20 74q39 146 163 146q23 0 44 -4t38 -11q20 -8 20 -25q0 -11 -9 -18t-23 -1q-17 7 -34.5 11t-37.5 4q-40 0 -70 -26.5t-45 -86.5l-17 -63h158q10 0 16.5 -6.5
t6.5 -16.5q0 -9 -7 -15.5t-16 -6.5h-170zM448 19q-6 -23 -27 -23q-11 0 -17 8t-3 20l184 687q6 23 27 23q11 0 17 -8t3 -20z" />
    <glyph glyph-name="apple" horiz-adv-x="694" 
d="M436 -200l-8 14h-163l-8 -14h-207v303q14 0 23 9t9 23q0 13 -9 22.5t-23 9.5v554h100l30 79h334l29 -79h101v-921h-208zM400 391h15v78h38v14h-38v66h43v14h-58v-172zM184 391h15v79h47v-79h15v172h-15v-79h-47v79h-15v-172zM460 394q10 -4 21 -4q31 0 31 36v137h-16
v-137q0 -22 -16 -22q-5 0 -10.5 1.5t-9.5 3.5v-15zM358 468q-2 -7 -4 -15t-4 -15h-1l-16 31q10 9 16.5 19.5t6.5 22.5q0 13 -6.5 22t-20.5 9q-13 0 -20.5 -9t-7.5 -22q0 -11 4 -19.5t10 -19.5q-23 -18 -23 -47q0 -17 8 -27t21 -10q19 0 29 24h1l12 -24l12 6l-17 32
q4 9 7 18.5t6 20.5zM523 277h8v12l8 8l15 -20h10l-20 26l18 20h-10l-20 -24h-1v24h-8v-46zM498 277h9l-12 17q10 4 10 14q0 15 -17 15h-20v-46h8v15h12zM426 276q11 0 17.5 7t6.5 17q0 9 -6.5 16.5t-17.5 7.5t-17.5 -7.5t-6.5 -16.5q0 -10 6.5 -17t17.5 -7zM357 323h-9
l18 -29v-17h8v17l18 29h-9l-13 -22zM193 277h34v7h-26v13h23v7h-23v12h26v7h-34v-46zM132 277h8v32l25 -32h7v46h-8v-32l-25 32h-7v-46zM255 276h8l11 34h1l11 -34h8l14 47h-8l-10 -35h-1l-11 35h-7l-11 -35h-1l-10 35h-8zM327 479l-8.5 17t-3.5 15q0 19 14 19q13 0 13 -19
q0 -15 -15 -32zM342 423q-8 -21 -20 -21q-16 0 -16 25q0 10 4.5 19t11.5 16zM476 299v17h11q10 0 10 -8q0 -9 -10 -9h-11zM426 283q-8 0 -12 5t-4 12q0 6 4 11.5t12 5.5t12 -5.5t4 -11.5q0 -7 -4 -12t-12 -5z" />
    <glyph glyph-name="uni00A0" horiz-adv-x="300" 
 />
  </font>
</defs>
</svg>
